%TF.GenerationSoftware,KiCad,Pcbnew,9.0.6*%
%TF.CreationDate,2025-12-28T20:47:28+01:00*%
%TF.ProjectId,Makropad_v1,4d616b72-6f70-4616-945f-76312e6b6963,rev?*%
%TF.SameCoordinates,Original*%
%TF.FileFunction,Legend,Bot*%
%TF.FilePolarity,Positive*%
%FSLAX46Y46*%
G04 Gerber Fmt 4.6, Leading zero omitted, Abs format (unit mm)*
G04 Created by KiCad (PCBNEW 9.0.6) date 2025-12-28 20:47:28*
%MOMM*%
%LPD*%
G01*
G04 APERTURE LIST*
%ADD10C,0.150000*%
%ADD11C,0.120000*%
G04 APERTURE END LIST*
D10*
X87664819Y-118173214D02*
X86664819Y-118173214D01*
X86664819Y-118173214D02*
X86664819Y-118411309D01*
X86664819Y-118411309D02*
X86712438Y-118554166D01*
X86712438Y-118554166D02*
X86807676Y-118649404D01*
X86807676Y-118649404D02*
X86902914Y-118697023D01*
X86902914Y-118697023D02*
X87093390Y-118744642D01*
X87093390Y-118744642D02*
X87236247Y-118744642D01*
X87236247Y-118744642D02*
X87426723Y-118697023D01*
X87426723Y-118697023D02*
X87521961Y-118649404D01*
X87521961Y-118649404D02*
X87617200Y-118554166D01*
X87617200Y-118554166D02*
X87664819Y-118411309D01*
X87664819Y-118411309D02*
X87664819Y-118173214D01*
X87664819Y-119697023D02*
X87664819Y-119125595D01*
X87664819Y-119411309D02*
X86664819Y-119411309D01*
X86664819Y-119411309D02*
X86807676Y-119316071D01*
X86807676Y-119316071D02*
X86902914Y-119220833D01*
X86902914Y-119220833D02*
X86950533Y-119125595D01*
X86664819Y-120030357D02*
X86664819Y-120649404D01*
X86664819Y-120649404D02*
X87045771Y-120316071D01*
X87045771Y-120316071D02*
X87045771Y-120458928D01*
X87045771Y-120458928D02*
X87093390Y-120554166D01*
X87093390Y-120554166D02*
X87141009Y-120601785D01*
X87141009Y-120601785D02*
X87236247Y-120649404D01*
X87236247Y-120649404D02*
X87474342Y-120649404D01*
X87474342Y-120649404D02*
X87569580Y-120601785D01*
X87569580Y-120601785D02*
X87617200Y-120554166D01*
X87617200Y-120554166D02*
X87664819Y-120458928D01*
X87664819Y-120458928D02*
X87664819Y-120173214D01*
X87664819Y-120173214D02*
X87617200Y-120077976D01*
X87617200Y-120077976D02*
X87569580Y-120030357D01*
X87344819Y-122935595D02*
X86344819Y-122935595D01*
X87344819Y-123507023D02*
X86773390Y-123078452D01*
X86344819Y-123507023D02*
X86916247Y-122935595D01*
X87347319Y-137223214D02*
X86347319Y-137223214D01*
X86347319Y-137223214D02*
X86347319Y-137461309D01*
X86347319Y-137461309D02*
X86394938Y-137604166D01*
X86394938Y-137604166D02*
X86490176Y-137699404D01*
X86490176Y-137699404D02*
X86585414Y-137747023D01*
X86585414Y-137747023D02*
X86775890Y-137794642D01*
X86775890Y-137794642D02*
X86918747Y-137794642D01*
X86918747Y-137794642D02*
X87109223Y-137747023D01*
X87109223Y-137747023D02*
X87204461Y-137699404D01*
X87204461Y-137699404D02*
X87299700Y-137604166D01*
X87299700Y-137604166D02*
X87347319Y-137461309D01*
X87347319Y-137461309D02*
X87347319Y-137223214D01*
X87347319Y-138747023D02*
X87347319Y-138175595D01*
X87347319Y-138461309D02*
X86347319Y-138461309D01*
X86347319Y-138461309D02*
X86490176Y-138366071D01*
X86490176Y-138366071D02*
X86585414Y-138270833D01*
X86585414Y-138270833D02*
X86633033Y-138175595D01*
X86680652Y-139604166D02*
X87347319Y-139604166D01*
X86299700Y-139366071D02*
X87013985Y-139127976D01*
X87013985Y-139127976D02*
X87013985Y-139747023D01*
X87027319Y-141985595D02*
X86027319Y-141985595D01*
X87027319Y-142557023D02*
X86455890Y-142128452D01*
X86027319Y-142557023D02*
X86598747Y-141985595D01*
X68297319Y-99599405D02*
X67297319Y-99599405D01*
X67297319Y-99599405D02*
X67297319Y-99837500D01*
X67297319Y-99837500D02*
X67344938Y-99980357D01*
X67344938Y-99980357D02*
X67440176Y-100075595D01*
X67440176Y-100075595D02*
X67535414Y-100123214D01*
X67535414Y-100123214D02*
X67725890Y-100170833D01*
X67725890Y-100170833D02*
X67868747Y-100170833D01*
X67868747Y-100170833D02*
X68059223Y-100123214D01*
X68059223Y-100123214D02*
X68154461Y-100075595D01*
X68154461Y-100075595D02*
X68249700Y-99980357D01*
X68249700Y-99980357D02*
X68297319Y-99837500D01*
X68297319Y-99837500D02*
X68297319Y-99599405D01*
X67297319Y-101027976D02*
X67297319Y-100837500D01*
X67297319Y-100837500D02*
X67344938Y-100742262D01*
X67344938Y-100742262D02*
X67392557Y-100694643D01*
X67392557Y-100694643D02*
X67535414Y-100599405D01*
X67535414Y-100599405D02*
X67725890Y-100551786D01*
X67725890Y-100551786D02*
X68106842Y-100551786D01*
X68106842Y-100551786D02*
X68202080Y-100599405D01*
X68202080Y-100599405D02*
X68249700Y-100647024D01*
X68249700Y-100647024D02*
X68297319Y-100742262D01*
X68297319Y-100742262D02*
X68297319Y-100932738D01*
X68297319Y-100932738D02*
X68249700Y-101027976D01*
X68249700Y-101027976D02*
X68202080Y-101075595D01*
X68202080Y-101075595D02*
X68106842Y-101123214D01*
X68106842Y-101123214D02*
X67868747Y-101123214D01*
X67868747Y-101123214D02*
X67773509Y-101075595D01*
X67773509Y-101075595D02*
X67725890Y-101027976D01*
X67725890Y-101027976D02*
X67678271Y-100932738D01*
X67678271Y-100932738D02*
X67678271Y-100742262D01*
X67678271Y-100742262D02*
X67725890Y-100647024D01*
X67725890Y-100647024D02*
X67773509Y-100599405D01*
X67773509Y-100599405D02*
X67868747Y-100551786D01*
X67977319Y-103885595D02*
X66977319Y-103885595D01*
X67977319Y-104457023D02*
X67405890Y-104028452D01*
X66977319Y-104457023D02*
X67548747Y-103885595D01*
X86783569Y-80549405D02*
X85783569Y-80549405D01*
X85783569Y-80549405D02*
X85783569Y-80787500D01*
X85783569Y-80787500D02*
X85831188Y-80930357D01*
X85831188Y-80930357D02*
X85926426Y-81025595D01*
X85926426Y-81025595D02*
X86021664Y-81073214D01*
X86021664Y-81073214D02*
X86212140Y-81120833D01*
X86212140Y-81120833D02*
X86354997Y-81120833D01*
X86354997Y-81120833D02*
X86545473Y-81073214D01*
X86545473Y-81073214D02*
X86640711Y-81025595D01*
X86640711Y-81025595D02*
X86735950Y-80930357D01*
X86735950Y-80930357D02*
X86783569Y-80787500D01*
X86783569Y-80787500D02*
X86783569Y-80549405D01*
X85783569Y-81454167D02*
X85783569Y-82073214D01*
X85783569Y-82073214D02*
X86164521Y-81739881D01*
X86164521Y-81739881D02*
X86164521Y-81882738D01*
X86164521Y-81882738D02*
X86212140Y-81977976D01*
X86212140Y-81977976D02*
X86259759Y-82025595D01*
X86259759Y-82025595D02*
X86354997Y-82073214D01*
X86354997Y-82073214D02*
X86593092Y-82073214D01*
X86593092Y-82073214D02*
X86688330Y-82025595D01*
X86688330Y-82025595D02*
X86735950Y-81977976D01*
X86735950Y-81977976D02*
X86783569Y-81882738D01*
X86783569Y-81882738D02*
X86783569Y-81597024D01*
X86783569Y-81597024D02*
X86735950Y-81501786D01*
X86735950Y-81501786D02*
X86688330Y-81454167D01*
X86463569Y-84835595D02*
X85463569Y-84835595D01*
X86463569Y-85407023D02*
X85892140Y-84978452D01*
X85463569Y-85407023D02*
X86034997Y-84835595D01*
X49247319Y-118649405D02*
X48247319Y-118649405D01*
X48247319Y-118649405D02*
X48247319Y-118887500D01*
X48247319Y-118887500D02*
X48294938Y-119030357D01*
X48294938Y-119030357D02*
X48390176Y-119125595D01*
X48390176Y-119125595D02*
X48485414Y-119173214D01*
X48485414Y-119173214D02*
X48675890Y-119220833D01*
X48675890Y-119220833D02*
X48818747Y-119220833D01*
X48818747Y-119220833D02*
X49009223Y-119173214D01*
X49009223Y-119173214D02*
X49104461Y-119125595D01*
X49104461Y-119125595D02*
X49199700Y-119030357D01*
X49199700Y-119030357D02*
X49247319Y-118887500D01*
X49247319Y-118887500D02*
X49247319Y-118649405D01*
X49247319Y-119697024D02*
X49247319Y-119887500D01*
X49247319Y-119887500D02*
X49199700Y-119982738D01*
X49199700Y-119982738D02*
X49152080Y-120030357D01*
X49152080Y-120030357D02*
X49009223Y-120125595D01*
X49009223Y-120125595D02*
X48818747Y-120173214D01*
X48818747Y-120173214D02*
X48437795Y-120173214D01*
X48437795Y-120173214D02*
X48342557Y-120125595D01*
X48342557Y-120125595D02*
X48294938Y-120077976D01*
X48294938Y-120077976D02*
X48247319Y-119982738D01*
X48247319Y-119982738D02*
X48247319Y-119792262D01*
X48247319Y-119792262D02*
X48294938Y-119697024D01*
X48294938Y-119697024D02*
X48342557Y-119649405D01*
X48342557Y-119649405D02*
X48437795Y-119601786D01*
X48437795Y-119601786D02*
X48675890Y-119601786D01*
X48675890Y-119601786D02*
X48771128Y-119649405D01*
X48771128Y-119649405D02*
X48818747Y-119697024D01*
X48818747Y-119697024D02*
X48866366Y-119792262D01*
X48866366Y-119792262D02*
X48866366Y-119982738D01*
X48866366Y-119982738D02*
X48818747Y-120077976D01*
X48818747Y-120077976D02*
X48771128Y-120125595D01*
X48771128Y-120125595D02*
X48675890Y-120173214D01*
X48927319Y-122935595D02*
X47927319Y-122935595D01*
X48927319Y-123507023D02*
X48355890Y-123078452D01*
X47927319Y-123507023D02*
X48498747Y-122935595D01*
X106714819Y-118173214D02*
X105714819Y-118173214D01*
X105714819Y-118173214D02*
X105714819Y-118411309D01*
X105714819Y-118411309D02*
X105762438Y-118554166D01*
X105762438Y-118554166D02*
X105857676Y-118649404D01*
X105857676Y-118649404D02*
X105952914Y-118697023D01*
X105952914Y-118697023D02*
X106143390Y-118744642D01*
X106143390Y-118744642D02*
X106286247Y-118744642D01*
X106286247Y-118744642D02*
X106476723Y-118697023D01*
X106476723Y-118697023D02*
X106571961Y-118649404D01*
X106571961Y-118649404D02*
X106667200Y-118554166D01*
X106667200Y-118554166D02*
X106714819Y-118411309D01*
X106714819Y-118411309D02*
X106714819Y-118173214D01*
X106714819Y-119697023D02*
X106714819Y-119125595D01*
X106714819Y-119411309D02*
X105714819Y-119411309D01*
X105714819Y-119411309D02*
X105857676Y-119316071D01*
X105857676Y-119316071D02*
X105952914Y-119220833D01*
X105952914Y-119220833D02*
X106000533Y-119125595D01*
X105714819Y-120601785D02*
X105714819Y-120125595D01*
X105714819Y-120125595D02*
X106191009Y-120077976D01*
X106191009Y-120077976D02*
X106143390Y-120125595D01*
X106143390Y-120125595D02*
X106095771Y-120220833D01*
X106095771Y-120220833D02*
X106095771Y-120458928D01*
X106095771Y-120458928D02*
X106143390Y-120554166D01*
X106143390Y-120554166D02*
X106191009Y-120601785D01*
X106191009Y-120601785D02*
X106286247Y-120649404D01*
X106286247Y-120649404D02*
X106524342Y-120649404D01*
X106524342Y-120649404D02*
X106619580Y-120601785D01*
X106619580Y-120601785D02*
X106667200Y-120554166D01*
X106667200Y-120554166D02*
X106714819Y-120458928D01*
X106714819Y-120458928D02*
X106714819Y-120220833D01*
X106714819Y-120220833D02*
X106667200Y-120125595D01*
X106667200Y-120125595D02*
X106619580Y-120077976D01*
X106394819Y-122935595D02*
X105394819Y-122935595D01*
X106394819Y-123507023D02*
X105823390Y-123078452D01*
X105394819Y-123507023D02*
X105966247Y-122935595D01*
X68297319Y-80549405D02*
X67297319Y-80549405D01*
X67297319Y-80549405D02*
X67297319Y-80787500D01*
X67297319Y-80787500D02*
X67344938Y-80930357D01*
X67344938Y-80930357D02*
X67440176Y-81025595D01*
X67440176Y-81025595D02*
X67535414Y-81073214D01*
X67535414Y-81073214D02*
X67725890Y-81120833D01*
X67725890Y-81120833D02*
X67868747Y-81120833D01*
X67868747Y-81120833D02*
X68059223Y-81073214D01*
X68059223Y-81073214D02*
X68154461Y-81025595D01*
X68154461Y-81025595D02*
X68249700Y-80930357D01*
X68249700Y-80930357D02*
X68297319Y-80787500D01*
X68297319Y-80787500D02*
X68297319Y-80549405D01*
X67392557Y-81501786D02*
X67344938Y-81549405D01*
X67344938Y-81549405D02*
X67297319Y-81644643D01*
X67297319Y-81644643D02*
X67297319Y-81882738D01*
X67297319Y-81882738D02*
X67344938Y-81977976D01*
X67344938Y-81977976D02*
X67392557Y-82025595D01*
X67392557Y-82025595D02*
X67487795Y-82073214D01*
X67487795Y-82073214D02*
X67583033Y-82073214D01*
X67583033Y-82073214D02*
X67725890Y-82025595D01*
X67725890Y-82025595D02*
X68297319Y-81454167D01*
X68297319Y-81454167D02*
X68297319Y-82073214D01*
X67977319Y-84835595D02*
X66977319Y-84835595D01*
X67977319Y-85407023D02*
X67405890Y-84978452D01*
X66977319Y-85407023D02*
X67548747Y-84835595D01*
X87347319Y-99599405D02*
X86347319Y-99599405D01*
X86347319Y-99599405D02*
X86347319Y-99837500D01*
X86347319Y-99837500D02*
X86394938Y-99980357D01*
X86394938Y-99980357D02*
X86490176Y-100075595D01*
X86490176Y-100075595D02*
X86585414Y-100123214D01*
X86585414Y-100123214D02*
X86775890Y-100170833D01*
X86775890Y-100170833D02*
X86918747Y-100170833D01*
X86918747Y-100170833D02*
X87109223Y-100123214D01*
X87109223Y-100123214D02*
X87204461Y-100075595D01*
X87204461Y-100075595D02*
X87299700Y-99980357D01*
X87299700Y-99980357D02*
X87347319Y-99837500D01*
X87347319Y-99837500D02*
X87347319Y-99599405D01*
X86347319Y-100504167D02*
X86347319Y-101170833D01*
X86347319Y-101170833D02*
X87347319Y-100742262D01*
X87027319Y-103885595D02*
X86027319Y-103885595D01*
X87027319Y-104457023D02*
X86455890Y-104028452D01*
X86027319Y-104457023D02*
X86598747Y-103885595D01*
X106397319Y-99599405D02*
X105397319Y-99599405D01*
X105397319Y-99599405D02*
X105397319Y-99837500D01*
X105397319Y-99837500D02*
X105444938Y-99980357D01*
X105444938Y-99980357D02*
X105540176Y-100075595D01*
X105540176Y-100075595D02*
X105635414Y-100123214D01*
X105635414Y-100123214D02*
X105825890Y-100170833D01*
X105825890Y-100170833D02*
X105968747Y-100170833D01*
X105968747Y-100170833D02*
X106159223Y-100123214D01*
X106159223Y-100123214D02*
X106254461Y-100075595D01*
X106254461Y-100075595D02*
X106349700Y-99980357D01*
X106349700Y-99980357D02*
X106397319Y-99837500D01*
X106397319Y-99837500D02*
X106397319Y-99599405D01*
X105825890Y-100742262D02*
X105778271Y-100647024D01*
X105778271Y-100647024D02*
X105730652Y-100599405D01*
X105730652Y-100599405D02*
X105635414Y-100551786D01*
X105635414Y-100551786D02*
X105587795Y-100551786D01*
X105587795Y-100551786D02*
X105492557Y-100599405D01*
X105492557Y-100599405D02*
X105444938Y-100647024D01*
X105444938Y-100647024D02*
X105397319Y-100742262D01*
X105397319Y-100742262D02*
X105397319Y-100932738D01*
X105397319Y-100932738D02*
X105444938Y-101027976D01*
X105444938Y-101027976D02*
X105492557Y-101075595D01*
X105492557Y-101075595D02*
X105587795Y-101123214D01*
X105587795Y-101123214D02*
X105635414Y-101123214D01*
X105635414Y-101123214D02*
X105730652Y-101075595D01*
X105730652Y-101075595D02*
X105778271Y-101027976D01*
X105778271Y-101027976D02*
X105825890Y-100932738D01*
X105825890Y-100932738D02*
X105825890Y-100742262D01*
X105825890Y-100742262D02*
X105873509Y-100647024D01*
X105873509Y-100647024D02*
X105921128Y-100599405D01*
X105921128Y-100599405D02*
X106016366Y-100551786D01*
X106016366Y-100551786D02*
X106206842Y-100551786D01*
X106206842Y-100551786D02*
X106302080Y-100599405D01*
X106302080Y-100599405D02*
X106349700Y-100647024D01*
X106349700Y-100647024D02*
X106397319Y-100742262D01*
X106397319Y-100742262D02*
X106397319Y-100932738D01*
X106397319Y-100932738D02*
X106349700Y-101027976D01*
X106349700Y-101027976D02*
X106302080Y-101075595D01*
X106302080Y-101075595D02*
X106206842Y-101123214D01*
X106206842Y-101123214D02*
X106016366Y-101123214D01*
X106016366Y-101123214D02*
X105921128Y-101075595D01*
X105921128Y-101075595D02*
X105873509Y-101027976D01*
X105873509Y-101027976D02*
X105825890Y-100932738D01*
X106077319Y-103885595D02*
X105077319Y-103885595D01*
X106077319Y-104457023D02*
X105505890Y-104028452D01*
X105077319Y-104457023D02*
X105648747Y-103885595D01*
X41219344Y-71049819D02*
X41219344Y-70049819D01*
X41219344Y-70049819D02*
X40981249Y-70049819D01*
X40981249Y-70049819D02*
X40838392Y-70097438D01*
X40838392Y-70097438D02*
X40743154Y-70192676D01*
X40743154Y-70192676D02*
X40695535Y-70287914D01*
X40695535Y-70287914D02*
X40647916Y-70478390D01*
X40647916Y-70478390D02*
X40647916Y-70621247D01*
X40647916Y-70621247D02*
X40695535Y-70811723D01*
X40695535Y-70811723D02*
X40743154Y-70906961D01*
X40743154Y-70906961D02*
X40838392Y-71002200D01*
X40838392Y-71002200D02*
X40981249Y-71049819D01*
X40981249Y-71049819D02*
X41219344Y-71049819D01*
X39695535Y-71049819D02*
X40266963Y-71049819D01*
X39981249Y-71049819D02*
X39981249Y-70049819D01*
X39981249Y-70049819D02*
X40076487Y-70192676D01*
X40076487Y-70192676D02*
X40171725Y-70287914D01*
X40171725Y-70287914D02*
X40266963Y-70335533D01*
X44553154Y-71369819D02*
X44553154Y-70369819D01*
X43981726Y-71369819D02*
X44410297Y-70798390D01*
X43981726Y-70369819D02*
X44553154Y-70941247D01*
X49247319Y-99599405D02*
X48247319Y-99599405D01*
X48247319Y-99599405D02*
X48247319Y-99837500D01*
X48247319Y-99837500D02*
X48294938Y-99980357D01*
X48294938Y-99980357D02*
X48390176Y-100075595D01*
X48390176Y-100075595D02*
X48485414Y-100123214D01*
X48485414Y-100123214D02*
X48675890Y-100170833D01*
X48675890Y-100170833D02*
X48818747Y-100170833D01*
X48818747Y-100170833D02*
X49009223Y-100123214D01*
X49009223Y-100123214D02*
X49104461Y-100075595D01*
X49104461Y-100075595D02*
X49199700Y-99980357D01*
X49199700Y-99980357D02*
X49247319Y-99837500D01*
X49247319Y-99837500D02*
X49247319Y-99599405D01*
X48247319Y-101075595D02*
X48247319Y-100599405D01*
X48247319Y-100599405D02*
X48723509Y-100551786D01*
X48723509Y-100551786D02*
X48675890Y-100599405D01*
X48675890Y-100599405D02*
X48628271Y-100694643D01*
X48628271Y-100694643D02*
X48628271Y-100932738D01*
X48628271Y-100932738D02*
X48675890Y-101027976D01*
X48675890Y-101027976D02*
X48723509Y-101075595D01*
X48723509Y-101075595D02*
X48818747Y-101123214D01*
X48818747Y-101123214D02*
X49056842Y-101123214D01*
X49056842Y-101123214D02*
X49152080Y-101075595D01*
X49152080Y-101075595D02*
X49199700Y-101027976D01*
X49199700Y-101027976D02*
X49247319Y-100932738D01*
X49247319Y-100932738D02*
X49247319Y-100694643D01*
X49247319Y-100694643D02*
X49199700Y-100599405D01*
X49199700Y-100599405D02*
X49152080Y-100551786D01*
X48927319Y-103885595D02*
X47927319Y-103885595D01*
X48927319Y-104457023D02*
X48355890Y-104028452D01*
X47927319Y-104457023D02*
X48498747Y-103885595D01*
X68297319Y-118173214D02*
X67297319Y-118173214D01*
X67297319Y-118173214D02*
X67297319Y-118411309D01*
X67297319Y-118411309D02*
X67344938Y-118554166D01*
X67344938Y-118554166D02*
X67440176Y-118649404D01*
X67440176Y-118649404D02*
X67535414Y-118697023D01*
X67535414Y-118697023D02*
X67725890Y-118744642D01*
X67725890Y-118744642D02*
X67868747Y-118744642D01*
X67868747Y-118744642D02*
X68059223Y-118697023D01*
X68059223Y-118697023D02*
X68154461Y-118649404D01*
X68154461Y-118649404D02*
X68249700Y-118554166D01*
X68249700Y-118554166D02*
X68297319Y-118411309D01*
X68297319Y-118411309D02*
X68297319Y-118173214D01*
X68297319Y-119697023D02*
X68297319Y-119125595D01*
X68297319Y-119411309D02*
X67297319Y-119411309D01*
X67297319Y-119411309D02*
X67440176Y-119316071D01*
X67440176Y-119316071D02*
X67535414Y-119220833D01*
X67535414Y-119220833D02*
X67583033Y-119125595D01*
X68297319Y-120649404D02*
X68297319Y-120077976D01*
X68297319Y-120363690D02*
X67297319Y-120363690D01*
X67297319Y-120363690D02*
X67440176Y-120268452D01*
X67440176Y-120268452D02*
X67535414Y-120173214D01*
X67535414Y-120173214D02*
X67583033Y-120077976D01*
X67977319Y-122935595D02*
X66977319Y-122935595D01*
X67977319Y-123507023D02*
X67405890Y-123078452D01*
X66977319Y-123507023D02*
X67548747Y-122935595D01*
X68614819Y-137223214D02*
X67614819Y-137223214D01*
X67614819Y-137223214D02*
X67614819Y-137461309D01*
X67614819Y-137461309D02*
X67662438Y-137604166D01*
X67662438Y-137604166D02*
X67757676Y-137699404D01*
X67757676Y-137699404D02*
X67852914Y-137747023D01*
X67852914Y-137747023D02*
X68043390Y-137794642D01*
X68043390Y-137794642D02*
X68186247Y-137794642D01*
X68186247Y-137794642D02*
X68376723Y-137747023D01*
X68376723Y-137747023D02*
X68471961Y-137699404D01*
X68471961Y-137699404D02*
X68567200Y-137604166D01*
X68567200Y-137604166D02*
X68614819Y-137461309D01*
X68614819Y-137461309D02*
X68614819Y-137223214D01*
X68614819Y-138747023D02*
X68614819Y-138175595D01*
X68614819Y-138461309D02*
X67614819Y-138461309D01*
X67614819Y-138461309D02*
X67757676Y-138366071D01*
X67757676Y-138366071D02*
X67852914Y-138270833D01*
X67852914Y-138270833D02*
X67900533Y-138175595D01*
X67710057Y-139127976D02*
X67662438Y-139175595D01*
X67662438Y-139175595D02*
X67614819Y-139270833D01*
X67614819Y-139270833D02*
X67614819Y-139508928D01*
X67614819Y-139508928D02*
X67662438Y-139604166D01*
X67662438Y-139604166D02*
X67710057Y-139651785D01*
X67710057Y-139651785D02*
X67805295Y-139699404D01*
X67805295Y-139699404D02*
X67900533Y-139699404D01*
X67900533Y-139699404D02*
X68043390Y-139651785D01*
X68043390Y-139651785D02*
X68614819Y-139080357D01*
X68614819Y-139080357D02*
X68614819Y-139699404D01*
X68294819Y-141985595D02*
X67294819Y-141985595D01*
X68294819Y-142557023D02*
X67723390Y-142128452D01*
X67294819Y-142557023D02*
X67866247Y-141985595D01*
D11*
%TO.C,D13*%
X85090000Y-116617500D02*
X85090000Y-117267500D01*
X85090000Y-122157500D02*
X85090000Y-121507500D01*
X86210000Y-120667500D02*
X83970000Y-120667500D01*
X86210000Y-120787500D02*
X83970000Y-120787500D01*
X86210000Y-120907500D02*
X83970000Y-120907500D01*
X86210000Y-121507500D02*
X83970000Y-121507500D01*
X83970000Y-117267500D01*
X86210000Y-117267500D01*
X86210000Y-121507500D01*
%TO.C,D14*%
X84772500Y-135667500D02*
X84772500Y-136317500D01*
X84772500Y-141207500D02*
X84772500Y-140557500D01*
X85892500Y-139717500D02*
X83652500Y-139717500D01*
X85892500Y-139837500D02*
X83652500Y-139837500D01*
X85892500Y-139957500D02*
X83652500Y-139957500D01*
X85892500Y-140557500D02*
X83652500Y-140557500D01*
X83652500Y-136317500D01*
X85892500Y-136317500D01*
X85892500Y-140557500D01*
%TO.C,D6*%
X65722500Y-97567500D02*
X65722500Y-98217500D01*
X65722500Y-103107500D02*
X65722500Y-102457500D01*
X66842500Y-101617500D02*
X64602500Y-101617500D01*
X66842500Y-101737500D02*
X64602500Y-101737500D01*
X66842500Y-101857500D02*
X64602500Y-101857500D01*
X66842500Y-102457500D02*
X64602500Y-102457500D01*
X64602500Y-98217500D01*
X66842500Y-98217500D01*
X66842500Y-102457500D01*
%TO.C,D3*%
X84208750Y-78517500D02*
X84208750Y-79167500D01*
X84208750Y-84057500D02*
X84208750Y-83407500D01*
X85328750Y-82567500D02*
X83088750Y-82567500D01*
X85328750Y-82687500D02*
X83088750Y-82687500D01*
X85328750Y-82807500D02*
X83088750Y-82807500D01*
X85328750Y-83407500D02*
X83088750Y-83407500D01*
X83088750Y-79167500D01*
X85328750Y-79167500D01*
X85328750Y-83407500D01*
%TO.C,D9*%
X46672500Y-116617500D02*
X46672500Y-117267500D01*
X46672500Y-122157500D02*
X46672500Y-121507500D01*
X47792500Y-120667500D02*
X45552500Y-120667500D01*
X47792500Y-120787500D02*
X45552500Y-120787500D01*
X47792500Y-120907500D02*
X45552500Y-120907500D01*
X47792500Y-121507500D02*
X45552500Y-121507500D01*
X45552500Y-117267500D01*
X47792500Y-117267500D01*
X47792500Y-121507500D01*
%TO.C,D15*%
X104140000Y-116617500D02*
X104140000Y-117267500D01*
X104140000Y-122157500D02*
X104140000Y-121507500D01*
X105260000Y-120667500D02*
X103020000Y-120667500D01*
X105260000Y-120787500D02*
X103020000Y-120787500D01*
X105260000Y-120907500D02*
X103020000Y-120907500D01*
X105260000Y-121507500D02*
X103020000Y-121507500D01*
X103020000Y-117267500D01*
X105260000Y-117267500D01*
X105260000Y-121507500D01*
%TO.C,D2*%
X65722500Y-78517500D02*
X65722500Y-79167500D01*
X65722500Y-84057500D02*
X65722500Y-83407500D01*
X66842500Y-82567500D02*
X64602500Y-82567500D01*
X66842500Y-82687500D02*
X64602500Y-82687500D01*
X66842500Y-82807500D02*
X64602500Y-82807500D01*
X66842500Y-83407500D02*
X64602500Y-83407500D01*
X64602500Y-79167500D01*
X66842500Y-79167500D01*
X66842500Y-83407500D01*
%TO.C,D7*%
X84772500Y-97567500D02*
X84772500Y-98217500D01*
X84772500Y-103107500D02*
X84772500Y-102457500D01*
X85892500Y-101617500D02*
X83652500Y-101617500D01*
X85892500Y-101737500D02*
X83652500Y-101737500D01*
X85892500Y-101857500D02*
X83652500Y-101857500D01*
X85892500Y-102457500D02*
X83652500Y-102457500D01*
X83652500Y-98217500D01*
X85892500Y-98217500D01*
X85892500Y-102457500D01*
%TO.C,D8*%
X103822500Y-97567500D02*
X103822500Y-98217500D01*
X103822500Y-103107500D02*
X103822500Y-102457500D01*
X104942500Y-101617500D02*
X102702500Y-101617500D01*
X104942500Y-101737500D02*
X102702500Y-101737500D01*
X104942500Y-101857500D02*
X102702500Y-101857500D01*
X104942500Y-102457500D02*
X102702500Y-102457500D01*
X102702500Y-98217500D01*
X104942500Y-98217500D01*
X104942500Y-102457500D01*
%TO.C,D1*%
X37711250Y-72715000D02*
X38361250Y-72715000D01*
X41761250Y-71595000D02*
X41761250Y-73835000D01*
X41881250Y-71595000D02*
X41881250Y-73835000D01*
X42001250Y-71595000D02*
X42001250Y-73835000D01*
X43251250Y-72715000D02*
X42601250Y-72715000D01*
X42601250Y-71595000D02*
X38361250Y-71595000D01*
X38361250Y-73835000D01*
X42601250Y-73835000D01*
X42601250Y-71595000D01*
%TO.C,D5*%
X46672500Y-97567500D02*
X46672500Y-98217500D01*
X46672500Y-103107500D02*
X46672500Y-102457500D01*
X47792500Y-101617500D02*
X45552500Y-101617500D01*
X47792500Y-101737500D02*
X45552500Y-101737500D01*
X47792500Y-101857500D02*
X45552500Y-101857500D01*
X47792500Y-102457500D02*
X45552500Y-102457500D01*
X45552500Y-98217500D01*
X47792500Y-98217500D01*
X47792500Y-102457500D01*
%TO.C,D11*%
X65722500Y-116617500D02*
X65722500Y-117267500D01*
X65722500Y-122157500D02*
X65722500Y-121507500D01*
X66842500Y-120667500D02*
X64602500Y-120667500D01*
X66842500Y-120787500D02*
X64602500Y-120787500D01*
X66842500Y-120907500D02*
X64602500Y-120907500D01*
X66842500Y-121507500D02*
X64602500Y-121507500D01*
X64602500Y-117267500D01*
X66842500Y-117267500D01*
X66842500Y-121507500D01*
%TO.C,D12*%
X66040000Y-135667500D02*
X66040000Y-136317500D01*
X66040000Y-141207500D02*
X66040000Y-140557500D01*
X67160000Y-139717500D02*
X64920000Y-139717500D01*
X67160000Y-139837500D02*
X64920000Y-139837500D01*
X67160000Y-139957500D02*
X64920000Y-139957500D01*
X67160000Y-140557500D02*
X64920000Y-140557500D01*
X64920000Y-136317500D01*
X67160000Y-136317500D01*
X67160000Y-140557500D01*
%TD*%
M02*
