%TF.GenerationSoftware,KiCad,Pcbnew,9.0.6*%
%TF.CreationDate,2025-12-28T20:47:28+01:00*%
%TF.ProjectId,Makropad_v1,4d616b72-6f70-4616-945f-76312e6b6963,rev?*%
%TF.SameCoordinates,Original*%
%TF.FileFunction,Soldermask,Top*%
%TF.FilePolarity,Negative*%
%FSLAX46Y46*%
G04 Gerber Fmt 4.6, Leading zero omitted, Abs format (unit mm)*
G04 Created by KiCad (PCBNEW 9.0.6) date 2025-12-28 20:47:28*
%MOMM*%
%LPD*%
G01*
G04 APERTURE LIST*
G04 Aperture macros list*
%AMRoundRect*
0 Rectangle with rounded corners*
0 $1 Rounding radius*
0 $2 $3 $4 $5 $6 $7 $8 $9 X,Y pos of 4 corners*
0 Add a 4 corners polygon primitive as box body*
4,1,4,$2,$3,$4,$5,$6,$7,$8,$9,$2,$3,0*
0 Add four circle primitives for the rounded corners*
1,1,$1+$1,$2,$3*
1,1,$1+$1,$4,$5*
1,1,$1+$1,$6,$7*
1,1,$1+$1,$8,$9*
0 Add four rect primitives between the rounded corners*
20,1,$1+$1,$2,$3,$4,$5,0*
20,1,$1+$1,$4,$5,$6,$7,0*
20,1,$1+$1,$6,$7,$8,$9,0*
20,1,$1+$1,$8,$9,$2,$3,0*%
G04 Aperture macros list end*
%ADD10R,2.000000X2.000000*%
%ADD11C,2.000000*%
%ADD12R,3.200000X2.000000*%
%ADD13C,1.750000*%
%ADD14C,4.000000*%
%ADD15C,2.500000*%
%ADD16RoundRect,0.500000X0.875000X0.500000X-0.875000X0.500000X-0.875000X-0.500000X0.875000X-0.500000X0*%
%ADD17R,1.600000X1.600000*%
%ADD18C,1.600000*%
%ADD19RoundRect,0.250000X0.550000X-0.550000X0.550000X0.550000X-0.550000X0.550000X-0.550000X-0.550000X0*%
%ADD20RoundRect,0.250000X0.550000X0.550000X-0.550000X0.550000X-0.550000X-0.550000X0.550000X-0.550000X0*%
G04 APERTURE END LIST*
D10*
%TO.C,SW1*%
X101865000Y-84740000D03*
D11*
X101865000Y-79740000D03*
X101865000Y-82240000D03*
D12*
X94365000Y-87840000D03*
X94365000Y-76640000D03*
D11*
X87365000Y-79740000D03*
X87365000Y-84740000D03*
%TD*%
D13*
%TO.C,S2*%
X51117500Y-82240000D03*
D14*
X56197500Y-82240000D03*
D13*
X61277500Y-82240000D03*
D15*
X52387500Y-79700000D03*
X58737500Y-77160000D03*
%TD*%
D13*
%TO.C,S14*%
X70167500Y-139390000D03*
D14*
X75247500Y-139390000D03*
D13*
X80327500Y-139390000D03*
D15*
X71437500Y-136850000D03*
X77787500Y-134310000D03*
%TD*%
D13*
%TO.C,S7*%
X70167500Y-101290000D03*
D14*
X75247500Y-101290000D03*
D13*
X80327500Y-101290000D03*
D15*
X71437500Y-98750000D03*
X77787500Y-96210000D03*
%TD*%
D13*
%TO.C,S8*%
X89217500Y-101290000D03*
D14*
X94297500Y-101290000D03*
D13*
X99377500Y-101290000D03*
D15*
X90487500Y-98750000D03*
X96837500Y-96210000D03*
%TD*%
D13*
%TO.C,S11*%
X51117500Y-120340000D03*
D14*
X56197500Y-120340000D03*
D13*
X61277500Y-120340000D03*
D15*
X52387500Y-117800000D03*
X58737500Y-115260000D03*
%TD*%
D13*
%TO.C,S15*%
X89217500Y-120340000D03*
D14*
X94297500Y-120340000D03*
D13*
X99377500Y-120340000D03*
D15*
X90487500Y-117800000D03*
X96837500Y-115260000D03*
%TD*%
D13*
%TO.C,S3*%
X70167500Y-82240000D03*
D14*
X75247500Y-82240000D03*
D13*
X80327500Y-82240000D03*
D15*
X71437500Y-79700000D03*
X77787500Y-77160000D03*
%TD*%
D13*
%TO.C,S6*%
X51117500Y-101290000D03*
D14*
X56197500Y-101290000D03*
D13*
X61277500Y-101290000D03*
D15*
X52387500Y-98750000D03*
X58737500Y-96210000D03*
%TD*%
D13*
%TO.C,S9*%
X32067500Y-120340000D03*
D14*
X37147500Y-120340000D03*
D13*
X42227500Y-120340000D03*
D15*
X33337500Y-117800000D03*
X39687500Y-115260000D03*
%TD*%
D13*
%TO.C,S5*%
X32067500Y-101290000D03*
D14*
X37147500Y-101290000D03*
D13*
X42227500Y-101290000D03*
D15*
X33337500Y-98750000D03*
X39687500Y-96210000D03*
%TD*%
D13*
%TO.C,S12*%
X51117500Y-139390000D03*
D14*
X56197500Y-139390000D03*
D13*
X61277500Y-139390000D03*
D15*
X52387500Y-136850000D03*
X58737500Y-134310000D03*
%TD*%
D16*
%TO.C,U1*%
X104108750Y-147985000D03*
D17*
X103663750Y-147985000D03*
D16*
X104108750Y-145445000D03*
D18*
X103663750Y-145445000D03*
D16*
X104108750Y-142905000D03*
D18*
X103663750Y-142905000D03*
D16*
X104108750Y-140365000D03*
D18*
X103663750Y-140365000D03*
D16*
X104108750Y-137825000D03*
D18*
X103663750Y-137825000D03*
D16*
X104108750Y-135285000D03*
D18*
X103663750Y-135285000D03*
D16*
X104108750Y-132745000D03*
D18*
X103663750Y-132745000D03*
X88423750Y-132745000D03*
D16*
X87943750Y-132745000D03*
D18*
X88423750Y-135285000D03*
D16*
X87943750Y-135285000D03*
D18*
X88423750Y-137825000D03*
D16*
X87943750Y-137825000D03*
D18*
X88423750Y-140365000D03*
D16*
X87943750Y-140365000D03*
D18*
X88423750Y-142905000D03*
D16*
X87943750Y-142905000D03*
D18*
X88423750Y-145445000D03*
D16*
X87943750Y-145445000D03*
D18*
X88423750Y-147985000D03*
D16*
X87943750Y-147985000D03*
%TD*%
D13*
%TO.C,S13*%
X70167500Y-120340000D03*
D14*
X75247500Y-120340000D03*
D13*
X80327500Y-120340000D03*
D15*
X71437500Y-117800000D03*
X77787500Y-115260000D03*
%TD*%
D10*
%TO.C,SW3*%
X44715000Y-84740000D03*
D11*
X44715000Y-79740000D03*
X44715000Y-82240000D03*
D12*
X37215000Y-87840000D03*
X37215000Y-76640000D03*
D11*
X30215000Y-79740000D03*
X30215000Y-84740000D03*
%TD*%
D19*
%TO.C,D13*%
X85090000Y-123197500D03*
D18*
X85090000Y-115577500D03*
%TD*%
D19*
%TO.C,D14*%
X84772500Y-142247500D03*
D18*
X84772500Y-134627500D03*
%TD*%
D19*
%TO.C,D6*%
X65722500Y-104147500D03*
D18*
X65722500Y-96527500D03*
%TD*%
D19*
%TO.C,D3*%
X84208750Y-85097500D03*
D18*
X84208750Y-77477500D03*
%TD*%
D19*
%TO.C,D9*%
X46672500Y-123197500D03*
D18*
X46672500Y-115577500D03*
%TD*%
D19*
%TO.C,D15*%
X104140000Y-123197500D03*
D18*
X104140000Y-115577500D03*
%TD*%
D19*
%TO.C,D2*%
X65722500Y-85097500D03*
D18*
X65722500Y-77477500D03*
%TD*%
D19*
%TO.C,D7*%
X84772500Y-104147500D03*
D18*
X84772500Y-96527500D03*
%TD*%
D19*
%TO.C,D8*%
X103822500Y-104147500D03*
D18*
X103822500Y-96527500D03*
%TD*%
D20*
%TO.C,D1*%
X44291250Y-72715000D03*
D18*
X36671250Y-72715000D03*
%TD*%
D19*
%TO.C,D5*%
X46672500Y-104147500D03*
D18*
X46672500Y-96527500D03*
%TD*%
D19*
%TO.C,D11*%
X65722500Y-123197500D03*
D18*
X65722500Y-115577500D03*
%TD*%
D19*
%TO.C,D12*%
X66040000Y-142247500D03*
D18*
X66040000Y-134627500D03*
%TD*%
M02*
