%TF.GenerationSoftware,KiCad,Pcbnew,9.0.6*%
%TF.CreationDate,2025-12-28T20:47:28+01:00*%
%TF.ProjectId,Makropad_v1,4d616b72-6f70-4616-945f-76312e6b6963,rev?*%
%TF.SameCoordinates,Original*%
%TF.FileFunction,Legend,Top*%
%TF.FilePolarity,Positive*%
%FSLAX46Y46*%
G04 Gerber Fmt 4.6, Leading zero omitted, Abs format (unit mm)*
G04 Created by KiCad (PCBNEW 9.0.6) date 2025-12-28 20:47:28*
%MOMM*%
%LPD*%
G01*
G04 APERTURE LIST*
%ADD10C,0.100000*%
%ADD11C,0.150000*%
%ADD12C,0.120000*%
%ADD13C,0.000000*%
G04 APERTURE END LIST*
D10*
G36*
X108097095Y-97482978D02*
G01*
X107042882Y-97482978D01*
X106946276Y-97474881D01*
X106864156Y-97451911D01*
X106793873Y-97415104D01*
X106733487Y-97364184D01*
X106684747Y-97301689D01*
X106649517Y-97230100D01*
X106627601Y-97147683D01*
X106619914Y-97052133D01*
X106627589Y-96956573D01*
X106649471Y-96874135D01*
X106684646Y-96802519D01*
X106733304Y-96739991D01*
X106793557Y-96689102D01*
X106863676Y-96652325D01*
X106945598Y-96629377D01*
X107041966Y-96621289D01*
X107041966Y-96864921D01*
X106978891Y-96870702D01*
X106928418Y-96886736D01*
X106887909Y-96911999D01*
X106857060Y-96947089D01*
X106837868Y-96992394D01*
X106830940Y-97051126D01*
X106837942Y-97109741D01*
X106857429Y-97155395D01*
X106888917Y-97191168D01*
X106930036Y-97217187D01*
X106980150Y-97233514D01*
X107041599Y-97239345D01*
X108097095Y-97239345D01*
X108097095Y-97482978D01*
G37*
G36*
X107798142Y-98919125D02*
G01*
X106637500Y-98919125D01*
X106637500Y-98678790D01*
X106773695Y-98678790D01*
X106710350Y-98614160D01*
X106660947Y-98530413D01*
X106630242Y-98436337D01*
X106619914Y-98335782D01*
X106626496Y-98245979D01*
X106645606Y-98164715D01*
X106676792Y-98090593D01*
X106720645Y-98023810D01*
X106776452Y-97967295D01*
X106845503Y-97920233D01*
X106922325Y-97886659D01*
X107011432Y-97865571D01*
X107115239Y-97858135D01*
X107798142Y-97858135D01*
X107798142Y-98092608D01*
X107150867Y-98092608D01*
X107049668Y-98102370D01*
X106971606Y-98129092D01*
X106911448Y-98170826D01*
X106866059Y-98227880D01*
X106838117Y-98297870D01*
X106828192Y-98384600D01*
X106838094Y-98471357D01*
X106866022Y-98541714D01*
X106911448Y-98599381D01*
X106971701Y-98641799D01*
X107049767Y-98668901D01*
X107150867Y-98678790D01*
X107798142Y-98678790D01*
X107798142Y-98919125D01*
G37*
G36*
X106619914Y-99649198D02*
G01*
X106625651Y-99558851D01*
X106642241Y-99477326D01*
X106669098Y-99403367D01*
X106706801Y-99334611D01*
X106751444Y-99277771D01*
X106803188Y-99231451D01*
X106862271Y-99196188D01*
X106924973Y-99175304D01*
X106992690Y-99168253D01*
X106992690Y-99416740D01*
X106946435Y-99427215D01*
X106905635Y-99450171D01*
X106868950Y-99487082D01*
X106841888Y-99532163D01*
X106825121Y-99585096D01*
X106819216Y-99647824D01*
X106824195Y-99714166D01*
X106837669Y-99765236D01*
X106858142Y-99804262D01*
X106887476Y-99835880D01*
X106920376Y-99853885D01*
X106958343Y-99859949D01*
X106998125Y-99853043D01*
X107029743Y-99832972D01*
X107055246Y-99797759D01*
X107085385Y-99725932D01*
X107124672Y-99600838D01*
X107161872Y-99476730D01*
X107194282Y-99388072D01*
X107236725Y-99311730D01*
X107297505Y-99245831D01*
X107346974Y-99213357D01*
X107407094Y-99193068D01*
X107480687Y-99185839D01*
X107540810Y-99191933D01*
X107596967Y-99210028D01*
X107650314Y-99240610D01*
X107696880Y-99281285D01*
X107737249Y-99333070D01*
X107771489Y-99397689D01*
X107795515Y-99467152D01*
X107810503Y-99545046D01*
X107815727Y-99632711D01*
X107808838Y-99731697D01*
X107789334Y-99816467D01*
X107758367Y-99889317D01*
X107716259Y-99952090D01*
X107662409Y-100005362D01*
X107600376Y-100044373D01*
X107528710Y-100069985D01*
X107445241Y-100081782D01*
X107445241Y-99841081D01*
X107494658Y-99830994D01*
X107535626Y-99810113D01*
X107569897Y-99778066D01*
X107594846Y-99737833D01*
X107610703Y-99687606D01*
X107616425Y-99624743D01*
X107611798Y-99562495D01*
X107599362Y-99515289D01*
X107580613Y-99479846D01*
X107553669Y-99451480D01*
X107522577Y-99435072D01*
X107485816Y-99429471D01*
X107443142Y-99437904D01*
X107407872Y-99463176D01*
X107380021Y-99499990D01*
X107358321Y-99545242D01*
X107313075Y-99688307D01*
X107277364Y-99808483D01*
X107244565Y-99895578D01*
X107201777Y-99970890D01*
X107142441Y-100035437D01*
X107094385Y-100067335D01*
X107035651Y-100087296D01*
X106963381Y-100094422D01*
X106899115Y-100088208D01*
X106840532Y-100069971D01*
X106786335Y-100039559D01*
X106739027Y-99998897D01*
X106698348Y-99947721D01*
X106664153Y-99884495D01*
X106640243Y-99816325D01*
X106625200Y-99738427D01*
X106619914Y-99649198D01*
G37*
G36*
X107604701Y-100632611D02*
G01*
X106959534Y-100632611D01*
X106900259Y-100641079D01*
X106865286Y-100662653D01*
X106845040Y-100699589D01*
X106836802Y-100765418D01*
X106836802Y-100910682D01*
X106637500Y-100910682D01*
X106637500Y-100722187D01*
X106647075Y-100617142D01*
X106673154Y-100536539D01*
X106713520Y-100474891D01*
X106754105Y-100439522D01*
X106806742Y-100412826D01*
X106874327Y-100395378D01*
X106960633Y-100388979D01*
X107604701Y-100388979D01*
X107604701Y-100254157D01*
X107798142Y-100254157D01*
X107798142Y-100388979D01*
X108085371Y-100388979D01*
X108085371Y-100632611D01*
X107798142Y-100632611D01*
X107798142Y-100910682D01*
X107604701Y-100910682D01*
X107604701Y-100632611D01*
G37*
G36*
X107798142Y-103233248D02*
G01*
X106637500Y-102874211D01*
X106637500Y-102622152D01*
X107494792Y-102389053D01*
X106637500Y-102155954D01*
X106637500Y-101903987D01*
X107798142Y-101542752D01*
X107798142Y-101786384D01*
X106865012Y-102027909D01*
X107798142Y-102273557D01*
X107798142Y-102523509D01*
X106869225Y-102758715D01*
X107798142Y-102998042D01*
X107798142Y-103233248D01*
G37*
G36*
X107334510Y-103345012D02*
G01*
X107438181Y-103371075D01*
X107531978Y-103413591D01*
X107616619Y-103472058D01*
X107686237Y-103542309D01*
X107742179Y-103625349D01*
X107782689Y-103717263D01*
X107807304Y-103816642D01*
X107815727Y-103925127D01*
X107807304Y-104033611D01*
X107782689Y-104132991D01*
X107742179Y-104224904D01*
X107686237Y-104307945D01*
X107616619Y-104378196D01*
X107531978Y-104436663D01*
X107438181Y-104479178D01*
X107334510Y-104505242D01*
X107218920Y-104514241D01*
X107103375Y-104505016D01*
X106999655Y-104478269D01*
X106905678Y-104434556D01*
X106821161Y-104374729D01*
X106751161Y-104302766D01*
X106694469Y-104217577D01*
X106653295Y-104123615D01*
X106628396Y-104023133D01*
X106620000Y-103915693D01*
X106828192Y-103915693D01*
X106839215Y-104005260D01*
X106872247Y-104088983D01*
X106906051Y-104138881D01*
X106949764Y-104182496D01*
X107004596Y-104220233D01*
X107065391Y-104247459D01*
X107136165Y-104264568D01*
X107218920Y-104270608D01*
X107301735Y-104264785D01*
X107372092Y-104248351D01*
X107432052Y-104222340D01*
X107486239Y-104185961D01*
X107529598Y-104143392D01*
X107563302Y-104094204D01*
X107596376Y-104011411D01*
X107607449Y-103922013D01*
X107596346Y-103832686D01*
X107563302Y-103750737D01*
X107529605Y-103702432D01*
X107486260Y-103660931D01*
X107432052Y-103625807D01*
X107372222Y-103600972D01*
X107301859Y-103585233D01*
X107218920Y-103579645D01*
X107125316Y-103586430D01*
X107047752Y-103605385D01*
X106983400Y-103635102D01*
X106930041Y-103675175D01*
X106885358Y-103726206D01*
X106853904Y-103782482D01*
X106834786Y-103845111D01*
X106828192Y-103915693D01*
X106620000Y-103915693D01*
X106619914Y-103914594D01*
X106628444Y-103807588D01*
X106653380Y-103709625D01*
X106694469Y-103619030D01*
X106750940Y-103537342D01*
X106820576Y-103468491D01*
X106904671Y-103411484D01*
X106997730Y-103370266D01*
X107101756Y-103344838D01*
X107218920Y-103336013D01*
X107334510Y-103345012D01*
G37*
G36*
X107630347Y-104991980D02*
G01*
X107684679Y-105031054D01*
X107729887Y-105077325D01*
X107766726Y-105131381D01*
X107793346Y-105191202D01*
X107809924Y-105259464D01*
X107815727Y-105337827D01*
X107569530Y-105337827D01*
X107569530Y-105277011D01*
X107560540Y-105186117D01*
X107536031Y-105116872D01*
X107497814Y-105064245D01*
X107444835Y-105027160D01*
X107365234Y-105001793D01*
X107249053Y-104991980D01*
X106637500Y-104991980D01*
X106637500Y-104751645D01*
X107798142Y-104751645D01*
X107798142Y-104991980D01*
X107630347Y-104991980D01*
G37*
G36*
X107216813Y-106016426D02*
G01*
X106637500Y-106549852D01*
X106637500Y-106226444D01*
X107136762Y-105797981D01*
X106637500Y-105797981D01*
X106637500Y-105557646D01*
X108196746Y-105557646D01*
X108196746Y-105797981D01*
X107290452Y-105797981D01*
X107798142Y-106218018D01*
X107798142Y-106549852D01*
X107216813Y-106016426D01*
G37*
G36*
X106924729Y-106981521D02*
G01*
X106344408Y-106727356D01*
X106344408Y-106572017D01*
X106924729Y-106721127D01*
X106924729Y-106981521D01*
G37*
G36*
X107337466Y-107663148D02*
G01*
X107439789Y-107687509D01*
X107531978Y-107727072D01*
X107615834Y-107781840D01*
X107685061Y-107847352D01*
X107741080Y-107924359D01*
X107782353Y-108010208D01*
X107807246Y-108102356D01*
X107815727Y-108202430D01*
X107810326Y-108276957D01*
X107794006Y-108351188D01*
X107766268Y-108425820D01*
X107728687Y-108495888D01*
X107684891Y-108553808D01*
X107634835Y-108601034D01*
X108196746Y-108601034D01*
X108196746Y-108844666D01*
X106637500Y-108844666D01*
X106637500Y-108601034D01*
X106813354Y-108601034D01*
X106761571Y-108557870D01*
X106715366Y-108504130D01*
X106674594Y-108438460D01*
X106644707Y-108367363D01*
X106626290Y-108288478D01*
X106623485Y-108249691D01*
X106828192Y-108249691D01*
X106833353Y-108310191D01*
X106848670Y-108367393D01*
X106874354Y-108422157D01*
X106909414Y-108471428D01*
X106954200Y-108514449D01*
X107009909Y-108551575D01*
X107071223Y-108578518D01*
X107140383Y-108595216D01*
X107218920Y-108601034D01*
X107297388Y-108595199D01*
X107366129Y-108578486D01*
X107426740Y-108551575D01*
X107481800Y-108514505D01*
X107526242Y-108471490D01*
X107561195Y-108422157D01*
X107586932Y-108367388D01*
X107602279Y-108310187D01*
X107607449Y-108249691D01*
X107596137Y-108160163D01*
X107562295Y-108077133D01*
X107527992Y-108027824D01*
X107484246Y-107984846D01*
X107429945Y-107947807D01*
X107369977Y-107920931D01*
X107301566Y-107904202D01*
X107223041Y-107898347D01*
X107144559Y-107904145D01*
X107075039Y-107920826D01*
X107013023Y-107947807D01*
X106956681Y-107985008D01*
X106911218Y-108028358D01*
X106875453Y-108078232D01*
X106849022Y-108133736D01*
X106833409Y-108190612D01*
X106828192Y-108249691D01*
X106623485Y-108249691D01*
X106619914Y-108200323D01*
X106628566Y-108101748D01*
X106654067Y-108010294D01*
X106696576Y-107924359D01*
X106754045Y-107847473D01*
X106825013Y-107781938D01*
X106910990Y-107727072D01*
X107005175Y-107687414D01*
X107108591Y-107663096D01*
X107223041Y-107654715D01*
X107337466Y-107663148D01*
G37*
G36*
X107334510Y-109092534D02*
G01*
X107438181Y-109118598D01*
X107531978Y-109161113D01*
X107616619Y-109219581D01*
X107686237Y-109289831D01*
X107742179Y-109372872D01*
X107782689Y-109464786D01*
X107807304Y-109564165D01*
X107815727Y-109672650D01*
X107807304Y-109781134D01*
X107782689Y-109880514D01*
X107742179Y-109972427D01*
X107686237Y-110055468D01*
X107616619Y-110125718D01*
X107531978Y-110184186D01*
X107438181Y-110226701D01*
X107334510Y-110252765D01*
X107218920Y-110261763D01*
X107103375Y-110252538D01*
X106999655Y-110225792D01*
X106905678Y-110182079D01*
X106821161Y-110122252D01*
X106751161Y-110050288D01*
X106694469Y-109965100D01*
X106653295Y-109871138D01*
X106628396Y-109770656D01*
X106620000Y-109663216D01*
X106828192Y-109663216D01*
X106839215Y-109752783D01*
X106872247Y-109836506D01*
X106906051Y-109886404D01*
X106949764Y-109930018D01*
X107004596Y-109967756D01*
X107065391Y-109994981D01*
X107136165Y-110012091D01*
X107218920Y-110018131D01*
X107301735Y-110012307D01*
X107372092Y-109995874D01*
X107432052Y-109969863D01*
X107486239Y-109933484D01*
X107529598Y-109890915D01*
X107563302Y-109841727D01*
X107596376Y-109758934D01*
X107607449Y-109669535D01*
X107596346Y-109580208D01*
X107563302Y-109498260D01*
X107529605Y-109449955D01*
X107486260Y-109408454D01*
X107432052Y-109373330D01*
X107372222Y-109348495D01*
X107301859Y-109332755D01*
X107218920Y-109327168D01*
X107125316Y-109333953D01*
X107047752Y-109352907D01*
X106983400Y-109382624D01*
X106930041Y-109422698D01*
X106885358Y-109473729D01*
X106853904Y-109530005D01*
X106834786Y-109592633D01*
X106828192Y-109663216D01*
X106620000Y-109663216D01*
X106619914Y-109662117D01*
X106628444Y-109555111D01*
X106653380Y-109457147D01*
X106694469Y-109366552D01*
X106750940Y-109284865D01*
X106820576Y-109216013D01*
X106904671Y-109159007D01*
X106997730Y-109117789D01*
X107101756Y-109092360D01*
X107218920Y-109083536D01*
X107334510Y-109092534D01*
G37*
G36*
X107815727Y-111082236D02*
G01*
X107809149Y-111171296D01*
X107790044Y-111251920D01*
X107758849Y-111325502D01*
X107715098Y-111391782D01*
X107659420Y-111447556D01*
X107590505Y-111493663D01*
X107513951Y-111526416D01*
X107425022Y-111547023D01*
X107321318Y-111554296D01*
X106637500Y-111554296D01*
X106637500Y-111319823D01*
X107285506Y-111319823D01*
X107386512Y-111310141D01*
X107464360Y-111283655D01*
X107524284Y-111242337D01*
X107569652Y-111185821D01*
X107597546Y-111116524D01*
X107607449Y-111030670D01*
X107597576Y-110944910D01*
X107569701Y-110875269D01*
X107524284Y-110818087D01*
X107464272Y-110776139D01*
X107386421Y-110749303D01*
X107285506Y-110739502D01*
X106637500Y-110739502D01*
X106637500Y-110499167D01*
X107798142Y-110499167D01*
X107798142Y-110739502D01*
X107664693Y-110739502D01*
X107727671Y-110805449D01*
X107775885Y-110888887D01*
X107805688Y-110982272D01*
X107815727Y-111082236D01*
G37*
G36*
X107604701Y-112140846D02*
G01*
X106959534Y-112140846D01*
X106900259Y-112149313D01*
X106865286Y-112170887D01*
X106845040Y-112207823D01*
X106836802Y-112273653D01*
X106836802Y-112418916D01*
X106637500Y-112418916D01*
X106637500Y-112230422D01*
X106647075Y-112125376D01*
X106673154Y-112044774D01*
X106713520Y-111983126D01*
X106754105Y-111947756D01*
X106806742Y-111921060D01*
X106874327Y-111903612D01*
X106960633Y-111897213D01*
X107604701Y-111897213D01*
X107604701Y-111762391D01*
X107798142Y-111762391D01*
X107798142Y-111897213D01*
X108085371Y-111897213D01*
X108085371Y-112140846D01*
X107798142Y-112140846D01*
X107798142Y-112418916D01*
X107604701Y-112418916D01*
X107604701Y-112140846D01*
G37*
G36*
X107798142Y-113428616D02*
G01*
X107626500Y-113428616D01*
X107675730Y-113472835D01*
X107720569Y-113527660D01*
X107761047Y-113594487D01*
X107791030Y-113666326D01*
X107809401Y-113745016D01*
X107815727Y-113831892D01*
X107807288Y-113930508D01*
X107782435Y-114021978D01*
X107741080Y-114107855D01*
X107685010Y-114184900D01*
X107615784Y-114250093D01*
X107531978Y-114304227D01*
X107439840Y-114343272D01*
X107337511Y-114367335D01*
X107223041Y-114375668D01*
X107108547Y-114367386D01*
X107005125Y-114343367D01*
X106910990Y-114304227D01*
X106825063Y-114249995D01*
X106754095Y-114184778D01*
X106696576Y-114107855D01*
X106654061Y-114021863D01*
X106628563Y-113930408D01*
X106619914Y-113831892D01*
X106623696Y-113779227D01*
X106828192Y-113779227D01*
X106833447Y-113839573D01*
X106849098Y-113897050D01*
X106875453Y-113952517D01*
X106911218Y-114002321D01*
X106956681Y-114045580D01*
X107013023Y-114082668D01*
X107075034Y-114109597D01*
X107144555Y-114126248D01*
X107223041Y-114132035D01*
X107301571Y-114126191D01*
X107369982Y-114109492D01*
X107429945Y-114082668D01*
X107484165Y-114045682D01*
X107527921Y-114002445D01*
X107562295Y-113952517D01*
X107596167Y-113868733D01*
X107607449Y-113779227D01*
X107595977Y-113691684D01*
X107561195Y-113608135D01*
X107526186Y-113558292D01*
X107481736Y-113515044D01*
X107426740Y-113477984D01*
X107366134Y-113451124D01*
X107297393Y-113434441D01*
X107218920Y-113428616D01*
X107140378Y-113434424D01*
X107071218Y-113451092D01*
X107009909Y-113477984D01*
X106954265Y-113515101D01*
X106909470Y-113558354D01*
X106874354Y-113608135D01*
X106839643Y-113691679D01*
X106828192Y-113779227D01*
X106623696Y-113779227D01*
X106626155Y-113744980D01*
X106644197Y-113667022D01*
X106673495Y-113596594D01*
X106734711Y-113501953D01*
X106807126Y-113428616D01*
X106086488Y-113428616D01*
X106086488Y-113188281D01*
X107798142Y-113188281D01*
X107798142Y-113428616D01*
G37*
G36*
X107630347Y-114851575D02*
G01*
X107684679Y-114890650D01*
X107729887Y-114936920D01*
X107766726Y-114990976D01*
X107793346Y-115050798D01*
X107809924Y-115119059D01*
X107815727Y-115197423D01*
X107569530Y-115197423D01*
X107569530Y-115136606D01*
X107560540Y-115045712D01*
X107536031Y-114976467D01*
X107497814Y-114923840D01*
X107444835Y-114886755D01*
X107365234Y-114861388D01*
X107249053Y-114851575D01*
X106637500Y-114851575D01*
X106637500Y-114611240D01*
X107798142Y-114611240D01*
X107798142Y-114851575D01*
X107630347Y-114851575D01*
G37*
G36*
X107334510Y-115350036D02*
G01*
X107438181Y-115376100D01*
X107531978Y-115418615D01*
X107616619Y-115477083D01*
X107686237Y-115547333D01*
X107742179Y-115630374D01*
X107782689Y-115722287D01*
X107807304Y-115821667D01*
X107815727Y-115930151D01*
X107807304Y-116038636D01*
X107782689Y-116138015D01*
X107742179Y-116229929D01*
X107686237Y-116312970D01*
X107616619Y-116383220D01*
X107531978Y-116441687D01*
X107438181Y-116484203D01*
X107334510Y-116510266D01*
X107218920Y-116519265D01*
X107103375Y-116510040D01*
X106999655Y-116483294D01*
X106905678Y-116439581D01*
X106821161Y-116379754D01*
X106751161Y-116307790D01*
X106694469Y-116222602D01*
X106653295Y-116128640D01*
X106628396Y-116028157D01*
X106620000Y-115920717D01*
X106828192Y-115920717D01*
X106839215Y-116010284D01*
X106872247Y-116094008D01*
X106906051Y-116143905D01*
X106949764Y-116187520D01*
X107004596Y-116225258D01*
X107065391Y-116252483D01*
X107136165Y-116269593D01*
X107218920Y-116275633D01*
X107301735Y-116269809D01*
X107372092Y-116253376D01*
X107432052Y-116227364D01*
X107486239Y-116190985D01*
X107529598Y-116148416D01*
X107563302Y-116099228D01*
X107596376Y-116016435D01*
X107607449Y-115927037D01*
X107596346Y-115837710D01*
X107563302Y-115755762D01*
X107529605Y-115707457D01*
X107486260Y-115665956D01*
X107432052Y-115630832D01*
X107372222Y-115605997D01*
X107301859Y-115590257D01*
X107218920Y-115584670D01*
X107125316Y-115591455D01*
X107047752Y-115610409D01*
X106983400Y-115640126D01*
X106930041Y-115680199D01*
X106885358Y-115731231D01*
X106853904Y-115787506D01*
X106834786Y-115850135D01*
X106828192Y-115920717D01*
X106620000Y-115920717D01*
X106619914Y-115919618D01*
X106628444Y-115812613D01*
X106653380Y-115714649D01*
X106694469Y-115624054D01*
X106750940Y-115542367D01*
X106820576Y-115473515D01*
X106904671Y-115416509D01*
X106997730Y-115375291D01*
X107101756Y-115349862D01*
X107218920Y-115341038D01*
X107334510Y-115350036D01*
G37*
G36*
X107218920Y-116674603D02*
G01*
X107336125Y-116683075D01*
X107440110Y-116707455D01*
X107532985Y-116746869D01*
X107617256Y-116801859D01*
X107686499Y-116868305D01*
X107742179Y-116947087D01*
X107782499Y-117035021D01*
X107807201Y-117132194D01*
X107815727Y-117240545D01*
X107808909Y-117345311D01*
X107789469Y-117436773D01*
X107758440Y-117516922D01*
X107716168Y-117587400D01*
X107662021Y-117649640D01*
X107597608Y-117701064D01*
X107521702Y-117742223D01*
X107432510Y-117772964D01*
X107432510Y-117514585D01*
X107486967Y-117488904D01*
X107531630Y-117455431D01*
X107567790Y-117413835D01*
X107594093Y-117365428D01*
X107610581Y-117308026D01*
X107616425Y-117239537D01*
X107609522Y-117167985D01*
X107589726Y-117106314D01*
X107557433Y-117052538D01*
X107511736Y-117005339D01*
X107457619Y-116969047D01*
X107392331Y-116941889D01*
X107313665Y-116924478D01*
X107218920Y-116918236D01*
X107124212Y-116924462D01*
X107045336Y-116941849D01*
X106979651Y-116969009D01*
X106925004Y-117005339D01*
X106878774Y-117052607D01*
X106846152Y-117106409D01*
X106826177Y-117168055D01*
X106819216Y-117239537D01*
X106827265Y-117320348D01*
X106849758Y-117385581D01*
X106885650Y-117438566D01*
X106935877Y-117481382D01*
X107003223Y-117514585D01*
X107003223Y-117772964D01*
X106918407Y-117741656D01*
X106844339Y-117699927D01*
X106779694Y-117647695D01*
X106723595Y-117584286D01*
X106679260Y-117512972D01*
X106646985Y-117432964D01*
X106626913Y-117342768D01*
X106619914Y-117240545D01*
X106628549Y-117132246D01*
X106653577Y-117035079D01*
X106694469Y-116947087D01*
X106750789Y-116868258D01*
X106820387Y-116801812D01*
X106904671Y-116746869D01*
X106997548Y-116707461D01*
X107101591Y-116683078D01*
X107218920Y-116674603D01*
G37*
G36*
X107630347Y-118255832D02*
G01*
X107684679Y-118294906D01*
X107729887Y-118341177D01*
X107766726Y-118395233D01*
X107793346Y-118455054D01*
X107809924Y-118523316D01*
X107815727Y-118601680D01*
X107569530Y-118601680D01*
X107569530Y-118540863D01*
X107560540Y-118449969D01*
X107536031Y-118380724D01*
X107497814Y-118328097D01*
X107444835Y-118291012D01*
X107365234Y-118265645D01*
X107249053Y-118255832D01*
X106637500Y-118255832D01*
X106637500Y-118015497D01*
X107798142Y-118015497D01*
X107798142Y-118255832D01*
X107630347Y-118255832D01*
G37*
G36*
X107337466Y-118747865D02*
G01*
X107439789Y-118772227D01*
X107531978Y-118811789D01*
X107615834Y-118866558D01*
X107685061Y-118932069D01*
X107741080Y-119009077D01*
X107782429Y-119094897D01*
X107807284Y-119186365D01*
X107815727Y-119285040D01*
X107809393Y-119374654D01*
X107791244Y-119453465D01*
X107762055Y-119523177D01*
X107722406Y-119587886D01*
X107677949Y-119641683D01*
X107628606Y-119685751D01*
X107798142Y-119685751D01*
X107798142Y-119929384D01*
X106637500Y-119929384D01*
X106637500Y-119685751D01*
X106811248Y-119685751D01*
X106760732Y-119641438D01*
X106715205Y-119586628D01*
X106674594Y-119519972D01*
X106644676Y-119448229D01*
X106626273Y-119368990D01*
X106623779Y-119334408D01*
X106828192Y-119334408D01*
X106833353Y-119394908D01*
X106848670Y-119452111D01*
X106874354Y-119506874D01*
X106909414Y-119556146D01*
X106954200Y-119599166D01*
X107009909Y-119636292D01*
X107071223Y-119663236D01*
X107140383Y-119679934D01*
X107218920Y-119685751D01*
X107297388Y-119679916D01*
X107366129Y-119663203D01*
X107426740Y-119636292D01*
X107481800Y-119599222D01*
X107526242Y-119556208D01*
X107561195Y-119506874D01*
X107586932Y-119452106D01*
X107602279Y-119394904D01*
X107607449Y-119334408D01*
X107596137Y-119244881D01*
X107562295Y-119161851D01*
X107527992Y-119112541D01*
X107484246Y-119069563D01*
X107429945Y-119032524D01*
X107369977Y-119005648D01*
X107301566Y-118988920D01*
X107223041Y-118983065D01*
X107144559Y-118988862D01*
X107075039Y-119005543D01*
X107013023Y-119032524D01*
X106956681Y-119069725D01*
X106911218Y-119113076D01*
X106875453Y-119162950D01*
X106849022Y-119218453D01*
X106833409Y-119275330D01*
X106828192Y-119334408D01*
X106623779Y-119334408D01*
X106619914Y-119280827D01*
X106628544Y-119183666D01*
X106654020Y-119093242D01*
X106696576Y-119007978D01*
X106753974Y-118931776D01*
X106824933Y-118866591D01*
X106910990Y-118811789D01*
X107005175Y-118772131D01*
X107108591Y-118747814D01*
X107223041Y-118739433D01*
X107337466Y-118747865D01*
G37*
G36*
X106619914Y-120660922D02*
G01*
X106625651Y-120570575D01*
X106642241Y-120489050D01*
X106669098Y-120415091D01*
X106706801Y-120346334D01*
X106751444Y-120289494D01*
X106803188Y-120243175D01*
X106862271Y-120207912D01*
X106924973Y-120187027D01*
X106992690Y-120179977D01*
X106992690Y-120428463D01*
X106946435Y-120438939D01*
X106905635Y-120461895D01*
X106868950Y-120498805D01*
X106841888Y-120543887D01*
X106825121Y-120596819D01*
X106819216Y-120659548D01*
X106824195Y-120725890D01*
X106837669Y-120776959D01*
X106858142Y-120815985D01*
X106887476Y-120847604D01*
X106920376Y-120865608D01*
X106958343Y-120871673D01*
X106998125Y-120864766D01*
X107029743Y-120844696D01*
X107055246Y-120809482D01*
X107085385Y-120737655D01*
X107124672Y-120612561D01*
X107161872Y-120488454D01*
X107194282Y-120399795D01*
X107236725Y-120323453D01*
X107297505Y-120257554D01*
X107346974Y-120225080D01*
X107407094Y-120204791D01*
X107480687Y-120197562D01*
X107540810Y-120203656D01*
X107596967Y-120221752D01*
X107650314Y-120252334D01*
X107696880Y-120293009D01*
X107737249Y-120344793D01*
X107771489Y-120409412D01*
X107795515Y-120478875D01*
X107810503Y-120556769D01*
X107815727Y-120644435D01*
X107808838Y-120743420D01*
X107789334Y-120828191D01*
X107758367Y-120901041D01*
X107716259Y-120963813D01*
X107662409Y-121017085D01*
X107600376Y-121056096D01*
X107528710Y-121081709D01*
X107445241Y-121093506D01*
X107445241Y-120852805D01*
X107494658Y-120842718D01*
X107535626Y-120821837D01*
X107569897Y-120789790D01*
X107594846Y-120749556D01*
X107610703Y-120699329D01*
X107616425Y-120636467D01*
X107611798Y-120574218D01*
X107599362Y-120527012D01*
X107580613Y-120491570D01*
X107553669Y-120463204D01*
X107522577Y-120446796D01*
X107485816Y-120441195D01*
X107443142Y-120449628D01*
X107407872Y-120474900D01*
X107380021Y-120511714D01*
X107358321Y-120556966D01*
X107313075Y-120700031D01*
X107277364Y-120820207D01*
X107244565Y-120907301D01*
X107201777Y-120982613D01*
X107142441Y-121047161D01*
X107094385Y-121079059D01*
X107035651Y-121099020D01*
X106963381Y-121106146D01*
X106899115Y-121099932D01*
X106840532Y-121081695D01*
X106786335Y-121051283D01*
X106739027Y-121010620D01*
X106698348Y-120959444D01*
X106664153Y-120896219D01*
X106640243Y-120828048D01*
X106625200Y-120750151D01*
X106619914Y-120660922D01*
G37*
G36*
X107604701Y-121644335D02*
G01*
X106959534Y-121644335D01*
X106900259Y-121652803D01*
X106865286Y-121674377D01*
X106845040Y-121711313D01*
X106836802Y-121777142D01*
X106836802Y-121922405D01*
X106637500Y-121922405D01*
X106637500Y-121733911D01*
X106647075Y-121628865D01*
X106673154Y-121548263D01*
X106713520Y-121486615D01*
X106754105Y-121451245D01*
X106806742Y-121424549D01*
X106874327Y-121407102D01*
X106960633Y-121400703D01*
X107604701Y-121400703D01*
X107604701Y-121265881D01*
X107798142Y-121265881D01*
X107798142Y-121400703D01*
X108085371Y-121400703D01*
X108085371Y-121644335D01*
X107798142Y-121644335D01*
X107798142Y-121922405D01*
X107604701Y-121922405D01*
X107604701Y-121644335D01*
G37*
G36*
X107950549Y-122264864D02*
G01*
X107955556Y-122223259D01*
X107970088Y-122187288D01*
X107994421Y-122155596D01*
X108025954Y-122131085D01*
X108061683Y-122116476D01*
X108102957Y-122111449D01*
X108144230Y-122116476D01*
X108179960Y-122131085D01*
X108211492Y-122155596D01*
X108235825Y-122187288D01*
X108250357Y-122223259D01*
X108255364Y-122264864D01*
X108250410Y-122305134D01*
X108235930Y-122340468D01*
X108211492Y-122372117D01*
X108179960Y-122396629D01*
X108144230Y-122411237D01*
X108102957Y-122416264D01*
X108061683Y-122411237D01*
X108025954Y-122396629D01*
X107994421Y-122372117D01*
X107969983Y-122340468D01*
X107955503Y-122305134D01*
X107950549Y-122264864D01*
G37*
G36*
X107798142Y-122381093D02*
G01*
X106637500Y-122381093D01*
X106637500Y-122140758D01*
X107798142Y-122140758D01*
X107798142Y-122381093D01*
G37*
G36*
X107815727Y-123283632D02*
G01*
X107809149Y-123372692D01*
X107790044Y-123453316D01*
X107758849Y-123526898D01*
X107715098Y-123593177D01*
X107659420Y-123648951D01*
X107590505Y-123695059D01*
X107513951Y-123727811D01*
X107425022Y-123748419D01*
X107321318Y-123755692D01*
X106637500Y-123755692D01*
X106637500Y-123521219D01*
X107285506Y-123521219D01*
X107386512Y-123511536D01*
X107464360Y-123485051D01*
X107524284Y-123443733D01*
X107569652Y-123387217D01*
X107597546Y-123317919D01*
X107607449Y-123232066D01*
X107597576Y-123146306D01*
X107569701Y-123076664D01*
X107524284Y-123019483D01*
X107464272Y-122977534D01*
X107386421Y-122950698D01*
X107285506Y-122940898D01*
X106637500Y-122940898D01*
X106637500Y-122700563D01*
X107798142Y-122700563D01*
X107798142Y-122940898D01*
X107664693Y-122940898D01*
X107727671Y-123006844D01*
X107775885Y-123090283D01*
X107805688Y-123183667D01*
X107815727Y-123283632D01*
G37*
G36*
X107337466Y-123989805D02*
G01*
X107439789Y-124014167D01*
X107531978Y-124053729D01*
X107615834Y-124108498D01*
X107685061Y-124174009D01*
X107741080Y-124251017D01*
X107782429Y-124336837D01*
X107807284Y-124428305D01*
X107815727Y-124526980D01*
X107809393Y-124616594D01*
X107791244Y-124695405D01*
X107762055Y-124765117D01*
X107722406Y-124829826D01*
X107677949Y-124883623D01*
X107628606Y-124927691D01*
X107798142Y-124927691D01*
X107798142Y-125171324D01*
X106637500Y-125171324D01*
X106637500Y-124927691D01*
X106811248Y-124927691D01*
X106760732Y-124883378D01*
X106715205Y-124828568D01*
X106674594Y-124761912D01*
X106644676Y-124690169D01*
X106626273Y-124610930D01*
X106623779Y-124576348D01*
X106828192Y-124576348D01*
X106833353Y-124636848D01*
X106848670Y-124694051D01*
X106874354Y-124748814D01*
X106909414Y-124798086D01*
X106954200Y-124841106D01*
X107009909Y-124878232D01*
X107071223Y-124905176D01*
X107140383Y-124921874D01*
X107218920Y-124927691D01*
X107297388Y-124921856D01*
X107366129Y-124905143D01*
X107426740Y-124878232D01*
X107481800Y-124841162D01*
X107526242Y-124798147D01*
X107561195Y-124748814D01*
X107586932Y-124694046D01*
X107602279Y-124636844D01*
X107607449Y-124576348D01*
X107596137Y-124486821D01*
X107562295Y-124403790D01*
X107527992Y-124354481D01*
X107484246Y-124311503D01*
X107429945Y-124274464D01*
X107369977Y-124247588D01*
X107301566Y-124230860D01*
X107223041Y-124225005D01*
X107144559Y-124230802D01*
X107075039Y-124247483D01*
X107013023Y-124274464D01*
X106956681Y-124311665D01*
X106911218Y-124355016D01*
X106875453Y-124404890D01*
X106849022Y-124460393D01*
X106833409Y-124517270D01*
X106828192Y-124576348D01*
X106623779Y-124576348D01*
X106619914Y-124522767D01*
X106628544Y-124425606D01*
X106654020Y-124335182D01*
X106696576Y-124249918D01*
X106753974Y-124173716D01*
X106824933Y-124108531D01*
X106910990Y-124053729D01*
X107005175Y-124014071D01*
X107108591Y-123989754D01*
X107223041Y-123981372D01*
X107337466Y-123989805D01*
G37*
G36*
X107604701Y-125765200D02*
G01*
X106959534Y-125765200D01*
X106900259Y-125773668D01*
X106865286Y-125795242D01*
X106845040Y-125832178D01*
X106836802Y-125898007D01*
X106836802Y-126043271D01*
X106637500Y-126043271D01*
X106637500Y-125854776D01*
X106647075Y-125749731D01*
X106673154Y-125669128D01*
X106713520Y-125607480D01*
X106754105Y-125572111D01*
X106806742Y-125545415D01*
X106874327Y-125527967D01*
X106960633Y-125521568D01*
X107604701Y-125521568D01*
X107604701Y-125386746D01*
X107798142Y-125386746D01*
X107798142Y-125521568D01*
X108085371Y-125521568D01*
X108085371Y-125765200D01*
X107798142Y-125765200D01*
X107798142Y-126043271D01*
X107604701Y-126043271D01*
X107604701Y-125765200D01*
G37*
G36*
X107336115Y-126196843D02*
G01*
X107440100Y-126221282D01*
X107532985Y-126260799D01*
X107617025Y-126316029D01*
X107686296Y-126383548D01*
X107742179Y-126464406D01*
X107782449Y-126554503D01*
X107807178Y-126654321D01*
X107815727Y-126765833D01*
X107807468Y-126873131D01*
X107783509Y-126969796D01*
X107744378Y-127057642D01*
X107690343Y-127136834D01*
X107623963Y-127202938D01*
X107544068Y-127257035D01*
X107455583Y-127296119D01*
X107357344Y-127320158D01*
X107247404Y-127328476D01*
X107129893Y-127320050D01*
X107129893Y-127076418D01*
X107323333Y-127076418D01*
X107407708Y-127065704D01*
X107477539Y-127035031D01*
X107536283Y-126984002D01*
X107580308Y-126918541D01*
X107607098Y-126843182D01*
X107616425Y-126755208D01*
X107607419Y-126675620D01*
X107581198Y-126605670D01*
X107537382Y-126543083D01*
X107479698Y-126493084D01*
X107409323Y-126458089D01*
X107323333Y-126438211D01*
X107323333Y-127076418D01*
X107129893Y-127076418D01*
X107129893Y-126436105D01*
X107040413Y-126452792D01*
X106966245Y-126487038D01*
X106904304Y-126538870D01*
X106857277Y-126604695D01*
X106828989Y-126679434D01*
X106819216Y-126765741D01*
X106826294Y-126841101D01*
X106846300Y-126904005D01*
X106878441Y-126956943D01*
X106923363Y-127001583D01*
X106983073Y-127038591D01*
X106983073Y-127296969D01*
X106883081Y-127252517D01*
X106796509Y-127189691D01*
X106721672Y-127107009D01*
X106678178Y-127036188D01*
X106646495Y-126956754D01*
X106626787Y-126867236D01*
X106619914Y-126765833D01*
X106628500Y-126657189D01*
X106653488Y-126558720D01*
X106694469Y-126468620D01*
X106750916Y-126387570D01*
X106820544Y-126319324D01*
X106904671Y-126262906D01*
X106997678Y-126222206D01*
X107101709Y-126197076D01*
X107218920Y-126188351D01*
X107336115Y-126196843D01*
G37*
G36*
X61769527Y-148750404D02*
G01*
X61769527Y-148943845D01*
X61151104Y-148943845D01*
X61151104Y-149377620D01*
X61631774Y-149377620D01*
X61631774Y-149571060D01*
X61151104Y-149571060D01*
X61151104Y-150210000D01*
X60910769Y-150210000D01*
X60910769Y-148750404D01*
X61769527Y-148750404D01*
G37*
G36*
X62613671Y-149040195D02*
G01*
X62713050Y-149064810D01*
X62804964Y-149105320D01*
X62888005Y-149161262D01*
X62958255Y-149230880D01*
X63016722Y-149315521D01*
X63059238Y-149409318D01*
X63085301Y-149512989D01*
X63094300Y-149628579D01*
X63085075Y-149744124D01*
X63058328Y-149847844D01*
X63014616Y-149941821D01*
X62954788Y-150026338D01*
X62882825Y-150096338D01*
X62797636Y-150153030D01*
X62703674Y-150194204D01*
X62603192Y-150219103D01*
X62494653Y-150227585D01*
X62387647Y-150219055D01*
X62289684Y-150194119D01*
X62199089Y-150153030D01*
X62117402Y-150096559D01*
X62048550Y-150026923D01*
X61991543Y-149942828D01*
X61950325Y-149849769D01*
X61924897Y-149745743D01*
X61916072Y-149628579D01*
X62159705Y-149628579D01*
X62166490Y-149722183D01*
X62185444Y-149799747D01*
X62215161Y-149864099D01*
X62255234Y-149917458D01*
X62306266Y-149962141D01*
X62362541Y-149993595D01*
X62425170Y-150012713D01*
X62495752Y-150019307D01*
X62585319Y-150008284D01*
X62669043Y-149975252D01*
X62718940Y-149941448D01*
X62762555Y-149897735D01*
X62800293Y-149842903D01*
X62827518Y-149782108D01*
X62844628Y-149711334D01*
X62850668Y-149628579D01*
X62844844Y-149545764D01*
X62828410Y-149475407D01*
X62802399Y-149415447D01*
X62766020Y-149361260D01*
X62723451Y-149317901D01*
X62674263Y-149284197D01*
X62591470Y-149251123D01*
X62502072Y-149240050D01*
X62412745Y-149251153D01*
X62330797Y-149284197D01*
X62282492Y-149317894D01*
X62240990Y-149361239D01*
X62205867Y-149415447D01*
X62181032Y-149475277D01*
X62165292Y-149545640D01*
X62159705Y-149628579D01*
X61916072Y-149628579D01*
X61925071Y-149512989D01*
X61951135Y-149409318D01*
X61993650Y-149315521D01*
X62052118Y-149230880D01*
X62122368Y-149161262D01*
X62205409Y-149105320D01*
X62297322Y-149064810D01*
X62396702Y-149040195D01*
X62505186Y-149031772D01*
X62613671Y-149040195D01*
G37*
G36*
X63249638Y-149628579D02*
G01*
X63258110Y-149511374D01*
X63282490Y-149407389D01*
X63321904Y-149314514D01*
X63376894Y-149230243D01*
X63443340Y-149161000D01*
X63522122Y-149105320D01*
X63610056Y-149065000D01*
X63707229Y-149040298D01*
X63815580Y-149031772D01*
X63920345Y-149038590D01*
X64011808Y-149058030D01*
X64091957Y-149089059D01*
X64162435Y-149131331D01*
X64224675Y-149185478D01*
X64276099Y-149249891D01*
X64317258Y-149325797D01*
X64347998Y-149414989D01*
X64089620Y-149414989D01*
X64063939Y-149360532D01*
X64030466Y-149315869D01*
X63988870Y-149279709D01*
X63940463Y-149253406D01*
X63883061Y-149236918D01*
X63814572Y-149231074D01*
X63743020Y-149237977D01*
X63681349Y-149257773D01*
X63627573Y-149290066D01*
X63580374Y-149335763D01*
X63544082Y-149389880D01*
X63516924Y-149455168D01*
X63499513Y-149533834D01*
X63493271Y-149628579D01*
X63499496Y-149723287D01*
X63516884Y-149802163D01*
X63544043Y-149867848D01*
X63580374Y-149922495D01*
X63627642Y-149968725D01*
X63681443Y-150001347D01*
X63743089Y-150021322D01*
X63814572Y-150028283D01*
X63895383Y-150020234D01*
X63960616Y-149997741D01*
X64013601Y-149961849D01*
X64056417Y-149911622D01*
X64089620Y-149844276D01*
X64347998Y-149844276D01*
X64316691Y-149929092D01*
X64274962Y-150003160D01*
X64222730Y-150067805D01*
X64159321Y-150123904D01*
X64088007Y-150168239D01*
X64007999Y-150200514D01*
X63917803Y-150220586D01*
X63815580Y-150227585D01*
X63707281Y-150218950D01*
X63610113Y-150193922D01*
X63522122Y-150153030D01*
X63443293Y-150096710D01*
X63376847Y-150027112D01*
X63321904Y-149942828D01*
X63282496Y-149849951D01*
X63258113Y-149745908D01*
X63249638Y-149628579D01*
G37*
G36*
X65639799Y-149049357D02*
G01*
X65639799Y-150210000D01*
X65399464Y-150210000D01*
X65399464Y-150073804D01*
X65334834Y-150137149D01*
X65251086Y-150186552D01*
X65157011Y-150217257D01*
X65056455Y-150227585D01*
X64966653Y-150221003D01*
X64885389Y-150201893D01*
X64811266Y-150170707D01*
X64744483Y-150126854D01*
X64687969Y-150071047D01*
X64640907Y-150001996D01*
X64607332Y-149925174D01*
X64586244Y-149836067D01*
X64578808Y-149732260D01*
X64578808Y-149049357D01*
X64813281Y-149049357D01*
X64813281Y-149696632D01*
X64823044Y-149797831D01*
X64849766Y-149875893D01*
X64891500Y-149936051D01*
X64948554Y-149981440D01*
X65018543Y-150009382D01*
X65105273Y-150019307D01*
X65192030Y-150009405D01*
X65262387Y-149981477D01*
X65320054Y-149936051D01*
X65362473Y-149875798D01*
X65389574Y-149797732D01*
X65399464Y-149696632D01*
X65399464Y-149049357D01*
X65639799Y-149049357D01*
G37*
G36*
X66369871Y-150227585D02*
G01*
X66279524Y-150221848D01*
X66198000Y-150205258D01*
X66124041Y-150178401D01*
X66055284Y-150140698D01*
X65998444Y-150096055D01*
X65952124Y-150044311D01*
X65916861Y-149985228D01*
X65895977Y-149922526D01*
X65888927Y-149854809D01*
X66137413Y-149854809D01*
X66147889Y-149901064D01*
X66170844Y-149941864D01*
X66207755Y-149978549D01*
X66252837Y-150005611D01*
X66305769Y-150022378D01*
X66368497Y-150028283D01*
X66434839Y-150023304D01*
X66485909Y-150009830D01*
X66524935Y-149989357D01*
X66556553Y-149960023D01*
X66574558Y-149927123D01*
X66580622Y-149889156D01*
X66573716Y-149849374D01*
X66553646Y-149817756D01*
X66518432Y-149792253D01*
X66446605Y-149762114D01*
X66321511Y-149722827D01*
X66197403Y-149685627D01*
X66108745Y-149653217D01*
X66032403Y-149610774D01*
X65966504Y-149549994D01*
X65934030Y-149500525D01*
X65913741Y-149440405D01*
X65906512Y-149366812D01*
X65912606Y-149306689D01*
X65930702Y-149250532D01*
X65961284Y-149197185D01*
X66001959Y-149150619D01*
X66053743Y-149110250D01*
X66118362Y-149076010D01*
X66187825Y-149051984D01*
X66265719Y-149036996D01*
X66353385Y-149031772D01*
X66452370Y-149038661D01*
X66537141Y-149058165D01*
X66609990Y-149089132D01*
X66672763Y-149131240D01*
X66726035Y-149185090D01*
X66765046Y-149247123D01*
X66790659Y-149318789D01*
X66802456Y-149402258D01*
X66561755Y-149402258D01*
X66551668Y-149352841D01*
X66530786Y-149311873D01*
X66498740Y-149277602D01*
X66458506Y-149252653D01*
X66408279Y-149236796D01*
X66345416Y-149231074D01*
X66283168Y-149235701D01*
X66235962Y-149248137D01*
X66200519Y-149266886D01*
X66172154Y-149293830D01*
X66155746Y-149324922D01*
X66150144Y-149361683D01*
X66158577Y-149404357D01*
X66183850Y-149439627D01*
X66220663Y-149467478D01*
X66265915Y-149489178D01*
X66408981Y-149534424D01*
X66529157Y-149570135D01*
X66616251Y-149602934D01*
X66691563Y-149645722D01*
X66756111Y-149705058D01*
X66788009Y-149753114D01*
X66807969Y-149811848D01*
X66815095Y-149884118D01*
X66808882Y-149948384D01*
X66790644Y-150006967D01*
X66760232Y-150061164D01*
X66719570Y-150108472D01*
X66668394Y-150149151D01*
X66605169Y-150183346D01*
X66536998Y-150207256D01*
X66459100Y-150222299D01*
X66369871Y-150227585D01*
G37*
G36*
X67816708Y-149040211D02*
G01*
X67908178Y-149065064D01*
X67994056Y-149106419D01*
X68071101Y-149162489D01*
X68136293Y-149231715D01*
X68190427Y-149315521D01*
X68229472Y-149407659D01*
X68253535Y-149509988D01*
X68261868Y-149624458D01*
X68253586Y-149738952D01*
X68229567Y-149842374D01*
X68190427Y-149936509D01*
X68136195Y-150022436D01*
X68070979Y-150093404D01*
X67994056Y-150150923D01*
X67908064Y-150193438D01*
X67816608Y-150218936D01*
X67718092Y-150227585D01*
X67631180Y-150221344D01*
X67553222Y-150203302D01*
X67482794Y-150174004D01*
X67388153Y-150112788D01*
X67314816Y-150040373D01*
X67314816Y-150761011D01*
X67074481Y-150761011D01*
X67074481Y-149628579D01*
X67314816Y-149628579D01*
X67320624Y-149707121D01*
X67337292Y-149776281D01*
X67364184Y-149837590D01*
X67401301Y-149893234D01*
X67444555Y-149938029D01*
X67494335Y-149973145D01*
X67577879Y-150007856D01*
X67665427Y-150019307D01*
X67725773Y-150014052D01*
X67783251Y-149998401D01*
X67838717Y-149972046D01*
X67888521Y-149936281D01*
X67931780Y-149890818D01*
X67968868Y-149834476D01*
X67995797Y-149772465D01*
X68012448Y-149702944D01*
X68018236Y-149624458D01*
X68012391Y-149545928D01*
X67995692Y-149477517D01*
X67968868Y-149417554D01*
X67931882Y-149363334D01*
X67888645Y-149319578D01*
X67838717Y-149285204D01*
X67754933Y-149251332D01*
X67665427Y-149240050D01*
X67577884Y-149251522D01*
X67494335Y-149286304D01*
X67444492Y-149321313D01*
X67401245Y-149365763D01*
X67364184Y-149420759D01*
X67337324Y-149481365D01*
X67320642Y-149550106D01*
X67314816Y-149628579D01*
X67074481Y-149628579D01*
X67074481Y-149049357D01*
X67314816Y-149049357D01*
X67314816Y-149220999D01*
X67359036Y-149171769D01*
X67413860Y-149126930D01*
X67480688Y-149086452D01*
X67552526Y-149056469D01*
X67631216Y-149038098D01*
X67718092Y-149031772D01*
X67816708Y-149040211D01*
G37*
G36*
X69050596Y-149038106D02*
G01*
X69129407Y-149056255D01*
X69199119Y-149085444D01*
X69263828Y-149125093D01*
X69317625Y-149169550D01*
X69361693Y-149218893D01*
X69361693Y-149049357D01*
X69605326Y-149049357D01*
X69605326Y-150210000D01*
X69361693Y-150210000D01*
X69361693Y-150036251D01*
X69317381Y-150086767D01*
X69262570Y-150132294D01*
X69195914Y-150172905D01*
X69124171Y-150202823D01*
X69044932Y-150221226D01*
X68956769Y-150227585D01*
X68859608Y-150218955D01*
X68769184Y-150193479D01*
X68683920Y-150150923D01*
X68607718Y-150093525D01*
X68542533Y-150022566D01*
X68487732Y-149936509D01*
X68448074Y-149842324D01*
X68423756Y-149738908D01*
X68415375Y-149624458D01*
X68659007Y-149624458D01*
X68664804Y-149702940D01*
X68681485Y-149772460D01*
X68708466Y-149834476D01*
X68745667Y-149890818D01*
X68789018Y-149936281D01*
X68838892Y-149972046D01*
X68894395Y-149998477D01*
X68951272Y-150014090D01*
X69010350Y-150019307D01*
X69070850Y-150014146D01*
X69128053Y-149998829D01*
X69182816Y-149973145D01*
X69232088Y-149938085D01*
X69275108Y-149893299D01*
X69312234Y-149837590D01*
X69339178Y-149776276D01*
X69355876Y-149707116D01*
X69361693Y-149628579D01*
X69355858Y-149550111D01*
X69339145Y-149481370D01*
X69312234Y-149420759D01*
X69275165Y-149365699D01*
X69232150Y-149321257D01*
X69182816Y-149286304D01*
X69128048Y-149260567D01*
X69070846Y-149245220D01*
X69010350Y-149240050D01*
X68920823Y-149251362D01*
X68837793Y-149285204D01*
X68788483Y-149319507D01*
X68745505Y-149363253D01*
X68708466Y-149417554D01*
X68681590Y-149477522D01*
X68664862Y-149545933D01*
X68659007Y-149624458D01*
X68415375Y-149624458D01*
X68423807Y-149510033D01*
X68448169Y-149407710D01*
X68487732Y-149315521D01*
X68542500Y-149231665D01*
X68608011Y-149162438D01*
X68685019Y-149106419D01*
X68770839Y-149065070D01*
X68862307Y-149040215D01*
X68960983Y-149031772D01*
X69050596Y-149038106D01*
G37*
G36*
X71028285Y-150210000D02*
G01*
X70784652Y-150210000D01*
X70784652Y-150034145D01*
X70741489Y-150085928D01*
X70687748Y-150132133D01*
X70622078Y-150172905D01*
X70550982Y-150202792D01*
X70472097Y-150221209D01*
X70383941Y-150227585D01*
X70285366Y-150218933D01*
X70193912Y-150193432D01*
X70107978Y-150150923D01*
X70031091Y-150093454D01*
X69965556Y-150022486D01*
X69910690Y-149936509D01*
X69871032Y-149842324D01*
X69846715Y-149738908D01*
X69838333Y-149624458D01*
X70081966Y-149624458D01*
X70087763Y-149702940D01*
X70104444Y-149772460D01*
X70131425Y-149834476D01*
X70168626Y-149890818D01*
X70211977Y-149936281D01*
X70261851Y-149972046D01*
X70317354Y-149998477D01*
X70374231Y-150014090D01*
X70433309Y-150019307D01*
X70493809Y-150014146D01*
X70551012Y-149998829D01*
X70605775Y-149973145D01*
X70655046Y-149938085D01*
X70698067Y-149893299D01*
X70735193Y-149837590D01*
X70762137Y-149776276D01*
X70778835Y-149707116D01*
X70784652Y-149628579D01*
X70778817Y-149550111D01*
X70762104Y-149481370D01*
X70735193Y-149420759D01*
X70698123Y-149365699D01*
X70655108Y-149321257D01*
X70605775Y-149286304D01*
X70551006Y-149260567D01*
X70493805Y-149245220D01*
X70433309Y-149240050D01*
X70343782Y-149251362D01*
X70260751Y-149285204D01*
X70211442Y-149319507D01*
X70168464Y-149363253D01*
X70131425Y-149417554D01*
X70104549Y-149477522D01*
X70087820Y-149545933D01*
X70081966Y-149624458D01*
X69838333Y-149624458D01*
X69846766Y-149510033D01*
X69871127Y-149407710D01*
X69910690Y-149315521D01*
X69965459Y-149231665D01*
X70030970Y-149162438D01*
X70107978Y-149106419D01*
X70193826Y-149065146D01*
X70285975Y-149040253D01*
X70386048Y-149031772D01*
X70460575Y-149037173D01*
X70534807Y-149053493D01*
X70609439Y-149081231D01*
X70679506Y-149118812D01*
X70737426Y-149162608D01*
X70784652Y-149212664D01*
X70784652Y-148650753D01*
X71028285Y-148650753D01*
X71028285Y-150210000D01*
G37*
G36*
X25907904Y-116633976D02*
G01*
X27367500Y-116633976D01*
X27367500Y-116874311D01*
X26728560Y-116874311D01*
X26728560Y-117560145D01*
X27367500Y-117560145D01*
X27367500Y-117800480D01*
X25907904Y-117800480D01*
X25907904Y-117560145D01*
X26535120Y-117560145D01*
X26535120Y-116874311D01*
X25907904Y-116874311D01*
X25907904Y-116633976D01*
G37*
G36*
X27367500Y-115456115D02*
G01*
X27193751Y-115456115D01*
X27244267Y-115500428D01*
X27289794Y-115555238D01*
X27330405Y-115621895D01*
X27360323Y-115693638D01*
X27378726Y-115772877D01*
X27385085Y-115861039D01*
X27376455Y-115958201D01*
X27350979Y-116048624D01*
X27308423Y-116133889D01*
X27251025Y-116210091D01*
X27180066Y-116275276D01*
X27094009Y-116330077D01*
X26999824Y-116369735D01*
X26896408Y-116394053D01*
X26781958Y-116402434D01*
X26667533Y-116394001D01*
X26565210Y-116369640D01*
X26473021Y-116330077D01*
X26389165Y-116275309D01*
X26319938Y-116209797D01*
X26263919Y-116132790D01*
X26222570Y-116046970D01*
X26197715Y-115955501D01*
X26189272Y-115856826D01*
X26192761Y-115807459D01*
X26397550Y-115807459D01*
X26408862Y-115896986D01*
X26442704Y-115980016D01*
X26477007Y-116029325D01*
X26520753Y-116072303D01*
X26575054Y-116109343D01*
X26635022Y-116136218D01*
X26703433Y-116152947D01*
X26781958Y-116158802D01*
X26860440Y-116153004D01*
X26929960Y-116136324D01*
X26991976Y-116109343D01*
X27048318Y-116072141D01*
X27093781Y-116028791D01*
X27129546Y-115978917D01*
X27155977Y-115923414D01*
X27171590Y-115866537D01*
X27176807Y-115807459D01*
X27171646Y-115746958D01*
X27156329Y-115689756D01*
X27130645Y-115634993D01*
X27095585Y-115585721D01*
X27050799Y-115542701D01*
X26995090Y-115505574D01*
X26933776Y-115478631D01*
X26864616Y-115461933D01*
X26786079Y-115456115D01*
X26707611Y-115461951D01*
X26638870Y-115478663D01*
X26578259Y-115505574D01*
X26523199Y-115542644D01*
X26478757Y-115585659D01*
X26443804Y-115634993D01*
X26418067Y-115689761D01*
X26402720Y-115746963D01*
X26397550Y-115807459D01*
X26192761Y-115807459D01*
X26195606Y-115767213D01*
X26213755Y-115688401D01*
X26242944Y-115618689D01*
X26282593Y-115553981D01*
X26327050Y-115500183D01*
X26376393Y-115456115D01*
X26206857Y-115456115D01*
X26206857Y-115212483D01*
X27367500Y-115212483D01*
X27367500Y-115456115D01*
G37*
G36*
X26786079Y-114979475D02*
G01*
X26668874Y-114971003D01*
X26564889Y-114946624D01*
X26472014Y-114907210D01*
X26387743Y-114852219D01*
X26318500Y-114785774D01*
X26262820Y-114706992D01*
X26222500Y-114619058D01*
X26197798Y-114521884D01*
X26189272Y-114413534D01*
X26196090Y-114308768D01*
X26215530Y-114217305D01*
X26246559Y-114137156D01*
X26288831Y-114066679D01*
X26342978Y-114004439D01*
X26407391Y-113953015D01*
X26483297Y-113911855D01*
X26572489Y-113881115D01*
X26572489Y-114139494D01*
X26518032Y-114165175D01*
X26473369Y-114198647D01*
X26437209Y-114240244D01*
X26410906Y-114288651D01*
X26394418Y-114346053D01*
X26388574Y-114414542D01*
X26395477Y-114486093D01*
X26415273Y-114547764D01*
X26447566Y-114601541D01*
X26493263Y-114648740D01*
X26547380Y-114685031D01*
X26612668Y-114712190D01*
X26691334Y-114729601D01*
X26786079Y-114735843D01*
X26880787Y-114729617D01*
X26959663Y-114712229D01*
X27025348Y-114685070D01*
X27079995Y-114648740D01*
X27126225Y-114601472D01*
X27158847Y-114547670D01*
X27178822Y-114486024D01*
X27185783Y-114414542D01*
X27177734Y-114333731D01*
X27155241Y-114268498D01*
X27119349Y-114215513D01*
X27069122Y-114172697D01*
X27001776Y-114139494D01*
X27001776Y-113881115D01*
X27086592Y-113912423D01*
X27160660Y-113954151D01*
X27225305Y-114006383D01*
X27281404Y-114069793D01*
X27325739Y-114141107D01*
X27358014Y-114221115D01*
X27378086Y-114311311D01*
X27385085Y-114413534D01*
X27376450Y-114521833D01*
X27351422Y-114619000D01*
X27310530Y-114706992D01*
X27254210Y-114785821D01*
X27184612Y-114852267D01*
X27100328Y-114907210D01*
X27007451Y-114946618D01*
X26903408Y-114971001D01*
X26786079Y-114979475D01*
G37*
G36*
X26788186Y-113179802D02*
G01*
X27367500Y-112646376D01*
X27367500Y-112969784D01*
X26868237Y-113398247D01*
X27367500Y-113398247D01*
X27367500Y-113638582D01*
X25808253Y-113638582D01*
X25808253Y-113398247D01*
X26714547Y-113398247D01*
X26206857Y-112978210D01*
X26206857Y-112646376D01*
X26788186Y-113179802D01*
G37*
G36*
X26786079Y-112558540D02*
G01*
X26668874Y-112550068D01*
X26564889Y-112525688D01*
X26472014Y-112486275D01*
X26387743Y-112431284D01*
X26318500Y-112364839D01*
X26262820Y-112286057D01*
X26222500Y-112198123D01*
X26197798Y-112100949D01*
X26189272Y-111992599D01*
X26196090Y-111887833D01*
X26215530Y-111796370D01*
X26246559Y-111716221D01*
X26288831Y-111645744D01*
X26342978Y-111583504D01*
X26407391Y-111532079D01*
X26483297Y-111490920D01*
X26572489Y-111460180D01*
X26572489Y-111718558D01*
X26518032Y-111744240D01*
X26473369Y-111777712D01*
X26437209Y-111819309D01*
X26410906Y-111867716D01*
X26394418Y-111925118D01*
X26388574Y-111993606D01*
X26395477Y-112065158D01*
X26415273Y-112126829D01*
X26447566Y-112180606D01*
X26493263Y-112227805D01*
X26547380Y-112264096D01*
X26612668Y-112291255D01*
X26691334Y-112308666D01*
X26786079Y-112314908D01*
X26880787Y-112308682D01*
X26959663Y-112291294D01*
X27025348Y-112264135D01*
X27079995Y-112227805D01*
X27126225Y-112180537D01*
X27158847Y-112126735D01*
X27178822Y-112065089D01*
X27185783Y-111993606D01*
X27177734Y-111912795D01*
X27155241Y-111847563D01*
X27119349Y-111794578D01*
X27069122Y-111751762D01*
X27001776Y-111718558D01*
X27001776Y-111460180D01*
X27086592Y-111491488D01*
X27160660Y-111533216D01*
X27225305Y-111585448D01*
X27281404Y-111648858D01*
X27325739Y-111720172D01*
X27358014Y-111800180D01*
X27378086Y-111890376D01*
X27385085Y-111992599D01*
X27376450Y-112100898D01*
X27351422Y-112198065D01*
X27310530Y-112286057D01*
X27254210Y-112364885D01*
X27184612Y-112431332D01*
X27100328Y-112486275D01*
X27007451Y-112525683D01*
X26903408Y-112550065D01*
X26786079Y-112558540D01*
G37*
G36*
X25808253Y-110977312D02*
G01*
X27367500Y-110977312D01*
X27367500Y-111217647D01*
X25808253Y-111217647D01*
X25808253Y-110977312D01*
G37*
G36*
X26206857Y-109614437D02*
G01*
X27367500Y-109614437D01*
X27367500Y-109854772D01*
X27231304Y-109854772D01*
X27294649Y-109919402D01*
X27344052Y-110003149D01*
X27374757Y-110097225D01*
X27385085Y-110197780D01*
X27378503Y-110287583D01*
X27359393Y-110368847D01*
X27328207Y-110442970D01*
X27284354Y-110509752D01*
X27228547Y-110566267D01*
X27159496Y-110613329D01*
X27082674Y-110646904D01*
X26993567Y-110667992D01*
X26889760Y-110675428D01*
X26206857Y-110675428D01*
X26206857Y-110440955D01*
X26854132Y-110440955D01*
X26955331Y-110431192D01*
X27033393Y-110404470D01*
X27093551Y-110362736D01*
X27138940Y-110305682D01*
X27166882Y-110235692D01*
X27176807Y-110148962D01*
X27166905Y-110062205D01*
X27138977Y-109991849D01*
X27093551Y-109934181D01*
X27033298Y-109891763D01*
X26955232Y-109864662D01*
X26854132Y-109854772D01*
X26206857Y-109854772D01*
X26206857Y-109614437D01*
G37*
G36*
X26896452Y-108121724D02*
G01*
X26999874Y-108145743D01*
X27094009Y-108184883D01*
X27179936Y-108239115D01*
X27250904Y-108304332D01*
X27308423Y-108381255D01*
X27350938Y-108467247D01*
X27376436Y-108558702D01*
X27385085Y-108657219D01*
X27378938Y-108745601D01*
X27361209Y-108824588D01*
X27332512Y-108895630D01*
X27293208Y-108961566D01*
X27248395Y-109016095D01*
X27197964Y-109060494D01*
X27367500Y-109060494D01*
X27367500Y-109300829D01*
X25808253Y-109300829D01*
X25808253Y-109060494D01*
X26380697Y-109060494D01*
X26328975Y-109015888D01*
X26283099Y-108960686D01*
X26242944Y-108893524D01*
X26213437Y-108821116D01*
X26195440Y-108742743D01*
X26193070Y-108709883D01*
X26397550Y-108709883D01*
X26409022Y-108797426D01*
X26443804Y-108880976D01*
X26478813Y-108930818D01*
X26523263Y-108974066D01*
X26578259Y-109011127D01*
X26638865Y-109037986D01*
X26707606Y-109054669D01*
X26786079Y-109060494D01*
X26864621Y-109054686D01*
X26933781Y-109038018D01*
X26995090Y-109011127D01*
X27050734Y-108974009D01*
X27095529Y-108930756D01*
X27130645Y-108880976D01*
X27165356Y-108797431D01*
X27176807Y-108709883D01*
X27171552Y-108649537D01*
X27155901Y-108592060D01*
X27129546Y-108536593D01*
X27093781Y-108486789D01*
X27048318Y-108443530D01*
X26991976Y-108406442D01*
X26929965Y-108379513D01*
X26860444Y-108362862D01*
X26781958Y-108357075D01*
X26703428Y-108362919D01*
X26635017Y-108379618D01*
X26575054Y-108406442D01*
X26520834Y-108443428D01*
X26477078Y-108486665D01*
X26442704Y-108536593D01*
X26408832Y-108620378D01*
X26397550Y-108709883D01*
X26193070Y-108709883D01*
X26189272Y-108657219D01*
X26197651Y-108557166D01*
X26222203Y-108465357D01*
X26262820Y-108380156D01*
X26318286Y-108303908D01*
X26387493Y-108239058D01*
X26472014Y-108184883D01*
X26564797Y-108145807D01*
X26667480Y-108121759D01*
X26781958Y-108113442D01*
X26896452Y-108121724D01*
G37*
G36*
X26638709Y-106663556D02*
G01*
X27367500Y-106209997D01*
X27367500Y-106478817D01*
X26838286Y-106808453D01*
X27367500Y-107117206D01*
X27367500Y-107383920D01*
X26638709Y-106930269D01*
X25907904Y-107386026D01*
X25907904Y-107117206D01*
X26441331Y-106785372D01*
X25907904Y-106474603D01*
X25907904Y-106207890D01*
X26638709Y-106663556D01*
G37*
G36*
X27367500Y-104418567D02*
G01*
X27068546Y-104523622D01*
X27068546Y-105134718D01*
X27367500Y-105239681D01*
X27367500Y-105489542D01*
X25902042Y-104966648D01*
X25902042Y-104828071D01*
X26193302Y-104828071D01*
X26875106Y-105067490D01*
X26875106Y-104590758D01*
X26193302Y-104828071D01*
X25902042Y-104828071D01*
X25902042Y-104689494D01*
X27367500Y-104166600D01*
X27367500Y-104418567D01*
G37*
G36*
X25907904Y-102404388D02*
G01*
X27367500Y-102404388D01*
X27367500Y-102644723D01*
X26367875Y-102644723D01*
X27367500Y-103088573D01*
X27367500Y-103253895D01*
X26367875Y-103699852D01*
X27367500Y-103699852D01*
X27367500Y-103940187D01*
X25907904Y-103940187D01*
X25907904Y-103680984D01*
X27052518Y-103170181D01*
X25907904Y-102661484D01*
X25907904Y-102404388D01*
G37*
G36*
X26754149Y-100843843D02*
G01*
X26854737Y-100862325D01*
X26946073Y-100892160D01*
X27029345Y-100933069D01*
X27106381Y-100985817D01*
X27173463Y-101048090D01*
X27231327Y-101120507D01*
X27280305Y-101204087D01*
X27327687Y-101323871D01*
X27357198Y-101459117D01*
X27367500Y-101612583D01*
X27367500Y-102089315D01*
X25907904Y-102089315D01*
X25907904Y-101612583D01*
X25907998Y-101611209D01*
X26101345Y-101611209D01*
X26101345Y-101848980D01*
X27174059Y-101848980D01*
X27174059Y-101611209D01*
X27164222Y-101483165D01*
X27136744Y-101377479D01*
X27093562Y-101290071D01*
X27035024Y-101217826D01*
X26961767Y-101160115D01*
X26874075Y-101117634D01*
X26769051Y-101090691D01*
X26642923Y-101081080D01*
X26515793Y-101090656D01*
X26409327Y-101117560D01*
X26319895Y-101160056D01*
X26244685Y-101217826D01*
X26184147Y-101290355D01*
X26139664Y-101377876D01*
X26111435Y-101483465D01*
X26101345Y-101611209D01*
X25907998Y-101611209D01*
X25918439Y-101459224D01*
X25948642Y-101323988D01*
X25997206Y-101204087D01*
X26047177Y-101120651D01*
X26106213Y-101048257D01*
X26174688Y-100985922D01*
X26253386Y-100933069D01*
X26338271Y-100892061D01*
X26430719Y-100862230D01*
X26531841Y-100843806D01*
X26642923Y-100837448D01*
X26754149Y-100843843D01*
G37*
D11*
X97731667Y-89847200D02*
X97874524Y-89894819D01*
X97874524Y-89894819D02*
X98112619Y-89894819D01*
X98112619Y-89894819D02*
X98207857Y-89847200D01*
X98207857Y-89847200D02*
X98255476Y-89799580D01*
X98255476Y-89799580D02*
X98303095Y-89704342D01*
X98303095Y-89704342D02*
X98303095Y-89609104D01*
X98303095Y-89609104D02*
X98255476Y-89513866D01*
X98255476Y-89513866D02*
X98207857Y-89466247D01*
X98207857Y-89466247D02*
X98112619Y-89418628D01*
X98112619Y-89418628D02*
X97922143Y-89371009D01*
X97922143Y-89371009D02*
X97826905Y-89323390D01*
X97826905Y-89323390D02*
X97779286Y-89275771D01*
X97779286Y-89275771D02*
X97731667Y-89180533D01*
X97731667Y-89180533D02*
X97731667Y-89085295D01*
X97731667Y-89085295D02*
X97779286Y-88990057D01*
X97779286Y-88990057D02*
X97826905Y-88942438D01*
X97826905Y-88942438D02*
X97922143Y-88894819D01*
X97922143Y-88894819D02*
X98160238Y-88894819D01*
X98160238Y-88894819D02*
X98303095Y-88942438D01*
X98636429Y-88894819D02*
X98874524Y-89894819D01*
X98874524Y-89894819D02*
X99065000Y-89180533D01*
X99065000Y-89180533D02*
X99255476Y-89894819D01*
X99255476Y-89894819D02*
X99493572Y-88894819D01*
X100398333Y-89894819D02*
X99826905Y-89894819D01*
X100112619Y-89894819D02*
X100112619Y-88894819D01*
X100112619Y-88894819D02*
X100017381Y-89037676D01*
X100017381Y-89037676D02*
X99922143Y-89132914D01*
X99922143Y-89132914D02*
X99826905Y-89180533D01*
X40581667Y-89847200D02*
X40724524Y-89894819D01*
X40724524Y-89894819D02*
X40962619Y-89894819D01*
X40962619Y-89894819D02*
X41057857Y-89847200D01*
X41057857Y-89847200D02*
X41105476Y-89799580D01*
X41105476Y-89799580D02*
X41153095Y-89704342D01*
X41153095Y-89704342D02*
X41153095Y-89609104D01*
X41153095Y-89609104D02*
X41105476Y-89513866D01*
X41105476Y-89513866D02*
X41057857Y-89466247D01*
X41057857Y-89466247D02*
X40962619Y-89418628D01*
X40962619Y-89418628D02*
X40772143Y-89371009D01*
X40772143Y-89371009D02*
X40676905Y-89323390D01*
X40676905Y-89323390D02*
X40629286Y-89275771D01*
X40629286Y-89275771D02*
X40581667Y-89180533D01*
X40581667Y-89180533D02*
X40581667Y-89085295D01*
X40581667Y-89085295D02*
X40629286Y-88990057D01*
X40629286Y-88990057D02*
X40676905Y-88942438D01*
X40676905Y-88942438D02*
X40772143Y-88894819D01*
X40772143Y-88894819D02*
X41010238Y-88894819D01*
X41010238Y-88894819D02*
X41153095Y-88942438D01*
X41486429Y-88894819D02*
X41724524Y-89894819D01*
X41724524Y-89894819D02*
X41915000Y-89180533D01*
X41915000Y-89180533D02*
X42105476Y-89894819D01*
X42105476Y-89894819D02*
X42343572Y-88894819D01*
X42629286Y-88894819D02*
X43248333Y-88894819D01*
X43248333Y-88894819D02*
X42915000Y-89275771D01*
X42915000Y-89275771D02*
X43057857Y-89275771D01*
X43057857Y-89275771D02*
X43153095Y-89323390D01*
X43153095Y-89323390D02*
X43200714Y-89371009D01*
X43200714Y-89371009D02*
X43248333Y-89466247D01*
X43248333Y-89466247D02*
X43248333Y-89704342D01*
X43248333Y-89704342D02*
X43200714Y-89799580D01*
X43200714Y-89799580D02*
X43153095Y-89847200D01*
X43153095Y-89847200D02*
X43057857Y-89894819D01*
X43057857Y-89894819D02*
X42772143Y-89894819D01*
X42772143Y-89894819D02*
X42676905Y-89847200D01*
X42676905Y-89847200D02*
X42629286Y-89799580D01*
D12*
%TO.C,SW1*%
X88265000Y-76340000D02*
X92365000Y-76340000D01*
X88265000Y-78740000D02*
X88265000Y-76340000D01*
X88265000Y-83540000D02*
X88265000Y-80940000D01*
X88265000Y-88140000D02*
X88265000Y-85740000D01*
X92365000Y-88140000D02*
X88265000Y-88140000D01*
X94365000Y-82740000D02*
X94365000Y-81740000D01*
X94865000Y-82240000D02*
X93865000Y-82240000D01*
X96365000Y-76340000D02*
X100465000Y-76340000D01*
X96365000Y-88140000D02*
X100465000Y-88140000D01*
X100465000Y-88140000D02*
X100465000Y-76340000D01*
X101565000Y-86340000D02*
X101865000Y-86040000D01*
X101865000Y-86040000D02*
X102165000Y-86340000D01*
X102165000Y-86340000D02*
X101565000Y-86340000D01*
X97365000Y-82240000D02*
G75*
G02*
X91365000Y-82240000I-3000000J0D01*
G01*
X91365000Y-82240000D02*
G75*
G02*
X97365000Y-82240000I3000000J0D01*
G01*
D13*
%TO.C,G\u002A\u002A\u002A*%
G36*
X33668686Y-137355514D02*
G01*
X33664803Y-137359397D01*
X33660921Y-137355514D01*
X33664803Y-137351632D01*
X33668686Y-137355514D01*
G37*
G36*
X37590117Y-136485811D02*
G01*
X37586234Y-136489693D01*
X37582352Y-136485811D01*
X37586234Y-136481928D01*
X37590117Y-136485811D01*
G37*
G36*
X38048264Y-137037141D02*
G01*
X38044381Y-137041023D01*
X38040499Y-137037141D01*
X38044381Y-137033258D01*
X38048264Y-137037141D01*
G37*
G36*
X40121575Y-140873154D02*
G01*
X40117692Y-140877037D01*
X40113810Y-140873154D01*
X40117692Y-140869271D01*
X40121575Y-140873154D01*
G37*
G36*
X30848715Y-141128664D02*
G01*
X30856986Y-141135883D01*
X30857680Y-141137629D01*
X30853995Y-141140821D01*
X30846322Y-141133669D01*
X30845291Y-141132089D01*
X30844376Y-141126775D01*
X30848715Y-141128664D01*
G37*
G36*
X32241866Y-137804067D02*
G01*
X32340904Y-137812537D01*
X32376587Y-137817454D01*
X32449811Y-137829206D01*
X32516029Y-137840749D01*
X32572774Y-137851625D01*
X32617578Y-137861375D01*
X32632031Y-137864968D01*
X32672973Y-137877341D01*
X32723782Y-137895288D01*
X32781817Y-137917644D01*
X32844435Y-137943244D01*
X32908995Y-137970925D01*
X32972856Y-137999521D01*
X33033376Y-138027868D01*
X33087913Y-138054802D01*
X33133825Y-138079158D01*
X33168471Y-138099772D01*
X33175595Y-138104575D01*
X33207576Y-138126824D01*
X33245781Y-138153203D01*
X33283577Y-138179135D01*
X33295956Y-138187582D01*
X33334128Y-138216091D01*
X33379529Y-138254087D01*
X33429500Y-138299080D01*
X33481385Y-138348580D01*
X33532525Y-138400099D01*
X33580262Y-138451146D01*
X33595179Y-138467877D01*
X33620643Y-138498657D01*
X33652245Y-138539668D01*
X33687911Y-138587959D01*
X33725570Y-138640578D01*
X33763149Y-138694576D01*
X33798574Y-138746999D01*
X33829772Y-138794898D01*
X33854671Y-138835320D01*
X33861270Y-138846723D01*
X33877962Y-138880319D01*
X33897296Y-138926084D01*
X33918215Y-138981105D01*
X33939664Y-139042466D01*
X33960588Y-139107253D01*
X33979930Y-139172553D01*
X33982110Y-139180338D01*
X34002474Y-139261436D01*
X34017134Y-139339566D01*
X34027048Y-139420896D01*
X34032971Y-139507268D01*
X34035530Y-139582052D01*
X34035379Y-139651448D01*
X34032161Y-139718287D01*
X34025521Y-139785404D01*
X34015100Y-139855631D01*
X34000544Y-139931802D01*
X33981496Y-140016750D01*
X33957599Y-140113308D01*
X33955901Y-140119929D01*
X33937781Y-140187299D01*
X33918330Y-140252824D01*
X33896859Y-140318187D01*
X33872674Y-140385075D01*
X33845084Y-140455173D01*
X33813398Y-140530168D01*
X33776925Y-140611744D01*
X33734973Y-140701587D01*
X33686850Y-140801384D01*
X33631865Y-140912819D01*
X33624872Y-140926853D01*
X33588337Y-141001140D01*
X33558696Y-141063913D01*
X33535164Y-141117157D01*
X33516951Y-141162855D01*
X33503270Y-141202991D01*
X33493333Y-141239547D01*
X33486352Y-141274509D01*
X33486050Y-141276352D01*
X33478107Y-141334543D01*
X33475212Y-141383839D01*
X33477349Y-141430028D01*
X33484501Y-141478896D01*
X33485459Y-141483981D01*
X33508382Y-141571397D01*
X33542267Y-141648836D01*
X33588211Y-141718318D01*
X33647314Y-141781862D01*
X33647695Y-141782215D01*
X33703152Y-141825962D01*
X33768083Y-141864810D01*
X33836656Y-141895655D01*
X33893877Y-141913360D01*
X33921411Y-141918363D01*
X33963144Y-141923883D01*
X34017756Y-141929795D01*
X34083930Y-141935973D01*
X34160347Y-141942291D01*
X34245688Y-141948623D01*
X34305433Y-141952694D01*
X34341998Y-141955650D01*
X34378120Y-141959476D01*
X34406822Y-141963418D01*
X34410263Y-141964010D01*
X34436543Y-141967812D01*
X34471778Y-141971709D01*
X34509410Y-141974998D01*
X34518976Y-141975679D01*
X34704923Y-141993552D01*
X34885571Y-142021596D01*
X35059335Y-142059416D01*
X35224630Y-142106615D01*
X35379872Y-142162798D01*
X35520688Y-142226170D01*
X35622715Y-142283990D01*
X35724950Y-142354934D01*
X35824844Y-142436844D01*
X35919848Y-142527561D01*
X36007413Y-142624925D01*
X36041077Y-142666917D01*
X36064711Y-142697154D01*
X36086666Y-142724669D01*
X36104162Y-142746012D01*
X36112985Y-142756217D01*
X36124016Y-142771360D01*
X36140125Y-142797495D01*
X36159686Y-142831607D01*
X36181070Y-142870680D01*
X36202650Y-142911699D01*
X36222800Y-142951648D01*
X36239891Y-142987510D01*
X36249172Y-143008587D01*
X36263354Y-143041734D01*
X36279931Y-143079409D01*
X36291762Y-143105652D01*
X36320065Y-143169160D01*
X36342720Y-143224580D01*
X36360990Y-143276075D01*
X36376137Y-143327806D01*
X36389425Y-143383935D01*
X36402116Y-143448626D01*
X36410738Y-143497795D01*
X36417170Y-143545100D01*
X36422628Y-143603718D01*
X36427027Y-143670353D01*
X36430278Y-143741711D01*
X36432293Y-143814497D01*
X36432984Y-143885417D01*
X36432264Y-143951175D01*
X36430046Y-144008476D01*
X36426240Y-144054026D01*
X36425676Y-144058516D01*
X36410019Y-144160840D01*
X36390349Y-144256856D01*
X36365621Y-144349875D01*
X36334791Y-144443207D01*
X36296814Y-144540160D01*
X36250645Y-144644045D01*
X36221684Y-144704715D01*
X36152532Y-144833919D01*
X36074872Y-144954116D01*
X35986241Y-145068835D01*
X35901620Y-145163432D01*
X35861029Y-145203786D01*
X35813172Y-145247408D01*
X35760005Y-145292844D01*
X35703486Y-145338638D01*
X35645571Y-145383334D01*
X35588217Y-145425477D01*
X35533381Y-145463613D01*
X35483019Y-145496285D01*
X35439089Y-145522038D01*
X35403546Y-145539418D01*
X35389020Y-145544665D01*
X35368333Y-145551934D01*
X35355637Y-145558631D01*
X35353736Y-145561153D01*
X35347396Y-145566490D01*
X35341663Y-145567223D01*
X35327939Y-145570328D01*
X35306378Y-145578242D01*
X35293130Y-145583999D01*
X35273578Y-145592112D01*
X35242608Y-145603920D01*
X35203533Y-145618203D01*
X35159669Y-145633745D01*
X35126853Y-145645075D01*
X35085337Y-145659559D01*
X35049817Y-145672558D01*
X35022539Y-145683200D01*
X35005748Y-145690613D01*
X35001452Y-145693793D01*
X34996871Y-145697790D01*
X34979279Y-145704076D01*
X34950940Y-145712137D01*
X34914116Y-145721457D01*
X34871072Y-145731519D01*
X34824072Y-145741809D01*
X34775378Y-145751810D01*
X34727255Y-145761006D01*
X34681966Y-145768882D01*
X34650985Y-145773647D01*
X34602316Y-145778810D01*
X34546595Y-145781873D01*
X34488796Y-145782801D01*
X34433890Y-145781561D01*
X34386852Y-145778122D01*
X34367555Y-145775521D01*
X34335276Y-145769174D01*
X34302531Y-145761232D01*
X34289903Y-145757613D01*
X34260604Y-145750182D01*
X34226664Y-145743827D01*
X34212251Y-145741845D01*
X34175382Y-145736002D01*
X34133042Y-145726871D01*
X34090177Y-145715756D01*
X34051732Y-145703963D01*
X34022654Y-145692797D01*
X34018120Y-145690613D01*
X33996857Y-145680805D01*
X33967394Y-145668483D01*
X33936586Y-145656498D01*
X33901256Y-145643332D01*
X33860060Y-145627985D01*
X33821685Y-145613693D01*
X33820323Y-145613185D01*
X33781202Y-145597469D01*
X33737821Y-145578301D01*
X33699483Y-145559792D01*
X33699024Y-145559556D01*
X33671718Y-145546297D01*
X33649802Y-145537150D01*
X33636723Y-145533491D01*
X33634746Y-145533864D01*
X33630385Y-145532376D01*
X33629741Y-145527750D01*
X33628251Y-145521078D01*
X33622348Y-145528007D01*
X33622095Y-145528397D01*
X33616031Y-145535709D01*
X33614453Y-145529412D01*
X33614448Y-145529044D01*
X33611783Y-145521926D01*
X33609462Y-145522911D01*
X33599975Y-145522344D01*
X33581063Y-145514332D01*
X33555763Y-145500703D01*
X33527112Y-145483282D01*
X33498145Y-145463895D01*
X33471899Y-145444368D01*
X33455143Y-145430098D01*
X33443017Y-145419885D01*
X33421503Y-145402762D01*
X33393648Y-145381121D01*
X33362687Y-145357497D01*
X33318604Y-145323646D01*
X33281350Y-145293586D01*
X33247798Y-145264437D01*
X33214824Y-145233318D01*
X33179301Y-145197350D01*
X33138105Y-145153653D01*
X33118638Y-145132605D01*
X33066581Y-145074866D01*
X33021575Y-145021802D01*
X32981364Y-144970237D01*
X32943694Y-144916994D01*
X32906311Y-144858896D01*
X32866958Y-144792767D01*
X32826363Y-144720815D01*
X32786409Y-144640769D01*
X32748720Y-144550180D01*
X32715035Y-144454026D01*
X32687094Y-144357285D01*
X32666637Y-144264935D01*
X32666226Y-144262668D01*
X32658509Y-144221075D01*
X32650388Y-144179363D01*
X32642987Y-144143208D01*
X32638751Y-144123873D01*
X32632866Y-144086894D01*
X32629084Y-144039241D01*
X32627458Y-143985634D01*
X32628042Y-143930794D01*
X32630889Y-143879442D01*
X32635533Y-143839464D01*
X32640720Y-143806321D01*
X32647042Y-143765029D01*
X32653399Y-143722804D01*
X32655506Y-143708617D01*
X32664578Y-143656856D01*
X32677904Y-143594003D01*
X32694607Y-143523626D01*
X32713813Y-143449293D01*
X32734649Y-143374572D01*
X32749984Y-143323136D01*
X32777475Y-143240850D01*
X32812719Y-143147288D01*
X32854977Y-143044173D01*
X32903510Y-142933232D01*
X32957577Y-142816191D01*
X33016440Y-142694773D01*
X33036821Y-142653978D01*
X33070328Y-142587296D01*
X33097581Y-142532635D01*
X33119357Y-142488166D01*
X33136434Y-142452064D01*
X33149589Y-142422499D01*
X33159597Y-142397645D01*
X33167237Y-142375674D01*
X33173286Y-142354760D01*
X33178519Y-142333073D01*
X33183715Y-142308788D01*
X33183841Y-142308182D01*
X33194188Y-142254020D01*
X33200078Y-142209777D01*
X33201585Y-142170519D01*
X33198781Y-142131309D01*
X33191743Y-142087214D01*
X33187477Y-142065738D01*
X33161573Y-141976567D01*
X33122702Y-141895579D01*
X33071567Y-141823583D01*
X33008871Y-141761389D01*
X32935317Y-141709808D01*
X32851607Y-141669649D01*
X32840160Y-141665362D01*
X32807256Y-141654065D01*
X32779539Y-141645767D01*
X32760335Y-141641388D01*
X32753338Y-141641325D01*
X32742990Y-141640597D01*
X32740822Y-141638154D01*
X32731309Y-141635255D01*
X32707544Y-141632957D01*
X32670799Y-141631325D01*
X32622341Y-141630425D01*
X32586429Y-141630262D01*
X32533307Y-141629572D01*
X32478371Y-141627642D01*
X32424176Y-141624683D01*
X32373277Y-141620907D01*
X32328232Y-141616524D01*
X32291596Y-141611746D01*
X32265924Y-141606784D01*
X32255110Y-141602894D01*
X32245017Y-141600575D01*
X32222769Y-141597483D01*
X32191694Y-141594030D01*
X32156654Y-141590755D01*
X32125344Y-141587878D01*
X32095352Y-141584604D01*
X32064278Y-141580551D01*
X32029724Y-141575339D01*
X31989291Y-141568587D01*
X31940581Y-141559914D01*
X31881193Y-141548940D01*
X31816684Y-141536789D01*
X31774974Y-141529269D01*
X31732178Y-141522183D01*
X31694555Y-141516539D01*
X31676910Y-141514247D01*
X31572706Y-141498877D01*
X31475583Y-141477490D01*
X31382677Y-141448972D01*
X31291123Y-141412210D01*
X31198056Y-141366090D01*
X31100611Y-141309498D01*
X31024632Y-141260646D01*
X30998235Y-141242064D01*
X30964010Y-141216548D01*
X30925678Y-141187018D01*
X30886959Y-141156398D01*
X30851571Y-141127610D01*
X30823236Y-141103575D01*
X30813099Y-141094462D01*
X30799499Y-141085037D01*
X30792231Y-141082815D01*
X30784250Y-141076979D01*
X30783965Y-141075049D01*
X30787793Y-141075049D01*
X30791676Y-141078932D01*
X30795558Y-141075049D01*
X30791676Y-141071167D01*
X30787793Y-141075049D01*
X30783965Y-141075049D01*
X30783911Y-141074684D01*
X30778800Y-141065942D01*
X30765060Y-141049080D01*
X30745079Y-141026921D01*
X30731383Y-141012562D01*
X30710967Y-140989677D01*
X30684095Y-140956750D01*
X30652969Y-140916634D01*
X30619789Y-140872180D01*
X30586756Y-140826242D01*
X30578239Y-140814086D01*
X30510954Y-140712298D01*
X30453132Y-140612945D01*
X30403158Y-140512469D01*
X30359415Y-140407314D01*
X30320287Y-140293922D01*
X30284159Y-140168737D01*
X30282946Y-140164163D01*
X30268813Y-140104322D01*
X30257891Y-140042640D01*
X30249903Y-139976328D01*
X30244577Y-139902597D01*
X30241637Y-139818654D01*
X30240809Y-139735551D01*
X30240994Y-139666266D01*
X30241950Y-139608909D01*
X30244024Y-139559886D01*
X30247568Y-139515601D01*
X30252930Y-139472457D01*
X30260460Y-139426859D01*
X30270507Y-139375211D01*
X30280430Y-139327877D01*
X30291924Y-139280714D01*
X30308230Y-139223021D01*
X30328111Y-139158574D01*
X30350331Y-139091149D01*
X30373655Y-139024520D01*
X30396847Y-138962462D01*
X30414098Y-138919546D01*
X30454196Y-138835649D01*
X30507527Y-138743964D01*
X30573990Y-138644661D01*
X30587965Y-138625126D01*
X30686844Y-138497257D01*
X30789241Y-138383050D01*
X30896963Y-138280734D01*
X31011815Y-138188536D01*
X31084619Y-138137523D01*
X31113748Y-138117224D01*
X31136798Y-138099438D01*
X31151399Y-138086117D01*
X31155247Y-138079306D01*
X31155209Y-138074878D01*
X31158053Y-138076152D01*
X31167516Y-138074626D01*
X31187851Y-138067046D01*
X31216193Y-138054601D01*
X31249679Y-138038483D01*
X31254377Y-138036122D01*
X31350057Y-137990133D01*
X31446038Y-137948471D01*
X31539735Y-137912076D01*
X31628567Y-137881891D01*
X31709953Y-137858857D01*
X31781309Y-137843916D01*
X31781740Y-137843846D01*
X31821521Y-137837432D01*
X31869489Y-137829677D01*
X31918502Y-137821738D01*
X31947724Y-137816995D01*
X32039425Y-137806289D01*
X32139422Y-137801982D01*
X32241866Y-137804067D01*
G37*
G36*
X41806540Y-137807884D02*
G01*
X41899808Y-137821474D01*
X41944583Y-137829344D01*
X41987067Y-137836798D01*
X42023488Y-137843177D01*
X42050072Y-137847817D01*
X42057772Y-137849155D01*
X42081684Y-137854362D01*
X42099606Y-137860177D01*
X42104363Y-137862742D01*
X42114939Y-137867820D01*
X42137068Y-137876398D01*
X42167503Y-137887273D01*
X42202651Y-137899130D01*
X42240937Y-137912000D01*
X42276902Y-137924631D01*
X42306209Y-137935467D01*
X42323012Y-137942270D01*
X42407974Y-137980552D01*
X42478897Y-138013494D01*
X42536239Y-138041320D01*
X42580460Y-138064255D01*
X42612019Y-138082522D01*
X42618550Y-138086765D01*
X42690374Y-138135592D01*
X42751340Y-138178572D01*
X42803975Y-138217739D01*
X42850803Y-138255123D01*
X42894352Y-138292757D01*
X42937147Y-138332672D01*
X42981714Y-138376901D01*
X42990820Y-138386194D01*
X43022824Y-138419132D01*
X43048950Y-138446632D01*
X43071253Y-138471222D01*
X43091788Y-138495431D01*
X43112610Y-138521788D01*
X43135773Y-138552822D01*
X43163331Y-138591061D01*
X43197341Y-138639036D01*
X43204561Y-138649262D01*
X43275805Y-138760492D01*
X43340867Y-138882555D01*
X43398564Y-139012240D01*
X43447709Y-139146340D01*
X43487118Y-139281646D01*
X43515605Y-139414949D01*
X43531201Y-139533655D01*
X43534660Y-139588474D01*
X43536525Y-139652540D01*
X43536882Y-139722299D01*
X43535816Y-139794197D01*
X43533413Y-139864679D01*
X43529757Y-139930190D01*
X43524935Y-139987176D01*
X43519276Y-140030629D01*
X43505637Y-140099378D01*
X43486658Y-140176300D01*
X43463531Y-140257706D01*
X43437451Y-140339907D01*
X43409611Y-140419212D01*
X43381204Y-140491932D01*
X43353425Y-140554377D01*
X43343306Y-140574597D01*
X43331995Y-140599185D01*
X43325550Y-140619034D01*
X43325287Y-140629461D01*
X43326494Y-140635139D01*
X43322893Y-140633701D01*
X43314898Y-140636757D01*
X43304710Y-140650514D01*
X43301365Y-140656958D01*
X43293097Y-140671783D01*
X43277635Y-140697104D01*
X43256483Y-140730551D01*
X43231148Y-140769752D01*
X43203133Y-140812339D01*
X43194189Y-140825782D01*
X43134061Y-140911638D01*
X43074359Y-140987339D01*
X43012477Y-141055368D01*
X42945809Y-141118203D01*
X42871749Y-141178326D01*
X42787689Y-141238216D01*
X42703820Y-141292420D01*
X42636411Y-141333646D01*
X42578570Y-141367075D01*
X42527344Y-141394096D01*
X42479779Y-141416099D01*
X42432922Y-141434474D01*
X42383819Y-141450610D01*
X42342425Y-141462436D01*
X42323276Y-141467602D01*
X42305782Y-141472166D01*
X42288323Y-141476439D01*
X42269279Y-141480732D01*
X42247030Y-141485356D01*
X42219956Y-141490622D01*
X42186438Y-141496842D01*
X42144855Y-141504325D01*
X42093587Y-141513385D01*
X42031014Y-141524331D01*
X41955517Y-141537475D01*
X41915338Y-141544460D01*
X41817182Y-141560836D01*
X41724144Y-141574804D01*
X41632916Y-141586721D01*
X41540193Y-141596942D01*
X41442667Y-141605825D01*
X41337032Y-141613726D01*
X41219982Y-141621001D01*
X41189291Y-141622722D01*
X41122023Y-141626997D01*
X41066370Y-141631725D01*
X41023089Y-141636796D01*
X40992934Y-141642099D01*
X40976663Y-141647523D01*
X40975030Y-141652958D01*
X40976342Y-141653925D01*
X40982795Y-141660096D01*
X40975530Y-141664198D01*
X40940537Y-141675073D01*
X40917465Y-141680918D01*
X40903739Y-141682283D01*
X40898079Y-141680725D01*
X40886939Y-141681613D01*
X40867621Y-141690323D01*
X40843122Y-141704710D01*
X40816439Y-141722625D01*
X40790568Y-141741922D01*
X40768506Y-141760451D01*
X40753251Y-141776067D01*
X40747797Y-141786621D01*
X40748242Y-141788103D01*
X40747847Y-141792040D01*
X40744474Y-141790488D01*
X40734993Y-141793140D01*
X40719730Y-141806792D01*
X40700587Y-141828949D01*
X40679465Y-141857115D01*
X40658266Y-141888796D01*
X40638892Y-141921495D01*
X40626909Y-141944753D01*
X40601178Y-142006153D01*
X40585194Y-142064095D01*
X40577500Y-142125181D01*
X40576267Y-142173827D01*
X40578482Y-142230959D01*
X40585010Y-142284604D01*
X40596713Y-142337553D01*
X40614451Y-142392601D01*
X40639087Y-142452539D01*
X40671482Y-142520162D01*
X40700022Y-142575042D01*
X40797319Y-142765402D01*
X40882081Y-142948013D01*
X40954652Y-143123812D01*
X41015372Y-143293734D01*
X41064583Y-143458715D01*
X41102627Y-143619692D01*
X41123453Y-143734634D01*
X41135905Y-143819545D01*
X41144306Y-143892877D01*
X41148670Y-143958040D01*
X41149009Y-144018446D01*
X41145336Y-144077504D01*
X41137661Y-144138625D01*
X41125998Y-144205221D01*
X41125164Y-144209507D01*
X41110930Y-144278427D01*
X41096208Y-144340814D01*
X41079693Y-144401285D01*
X41060081Y-144464455D01*
X41036068Y-144534941D01*
X41022398Y-144573276D01*
X41009296Y-144609795D01*
X40997652Y-144642576D01*
X40988762Y-144667955D01*
X40984008Y-144681989D01*
X40971901Y-144711453D01*
X40951893Y-144750365D01*
X40925661Y-144795952D01*
X40894882Y-144845438D01*
X40861236Y-144896049D01*
X40826399Y-144945010D01*
X40818798Y-144955210D01*
X40796932Y-144982888D01*
X40767409Y-145018292D01*
X40732692Y-145058655D01*
X40695245Y-145101207D01*
X40657533Y-145143182D01*
X40622020Y-145181811D01*
X40591168Y-145214328D01*
X40567444Y-145237964D01*
X40565206Y-145240060D01*
X40534261Y-145267800D01*
X40495334Y-145301255D01*
X40451857Y-145337612D01*
X40407260Y-145374059D01*
X40364972Y-145407783D01*
X40328425Y-145435972D01*
X40307940Y-145451013D01*
X40274598Y-145473389D01*
X40238406Y-145494926D01*
X40197803Y-145516298D01*
X40151228Y-145538178D01*
X40097120Y-145561239D01*
X40033919Y-145586155D01*
X39960065Y-145613599D01*
X39873995Y-145644245D01*
X39803201Y-145668802D01*
X39775636Y-145679079D01*
X39751103Y-145689560D01*
X39740302Y-145694996D01*
X39724870Y-145701087D01*
X39698035Y-145709031D01*
X39663650Y-145717774D01*
X39627706Y-145725816D01*
X39586778Y-145734638D01*
X39546842Y-145743710D01*
X39512918Y-145751864D01*
X39492823Y-145757130D01*
X39453296Y-145765645D01*
X39402139Y-145772751D01*
X39343205Y-145778269D01*
X39280345Y-145782018D01*
X39217412Y-145783819D01*
X39158258Y-145783493D01*
X39106735Y-145780859D01*
X39072275Y-145776749D01*
X39046140Y-145770895D01*
X39023667Y-145763493D01*
X39018092Y-145760913D01*
X39005746Y-145753480D01*
X39006533Y-145749009D01*
X39015206Y-145745218D01*
X39016743Y-145742189D01*
X39004199Y-145740229D01*
X38978998Y-145739548D01*
X38976207Y-145739556D01*
X38939413Y-145737386D01*
X38896318Y-145731248D01*
X38851555Y-145722176D01*
X38809761Y-145711202D01*
X38775572Y-145699358D01*
X38758561Y-145691053D01*
X38742364Y-145683060D01*
X38715128Y-145671536D01*
X38680515Y-145657960D01*
X38642186Y-145643813D01*
X38638201Y-145642392D01*
X38596284Y-145627221D01*
X38554354Y-145611563D01*
X38517356Y-145597293D01*
X38490881Y-145586561D01*
X38463261Y-145575490D01*
X38439514Y-145567122D01*
X38424877Y-145563288D01*
X38409001Y-145561288D01*
X38403064Y-145560449D01*
X38401007Y-145555575D01*
X38413229Y-145555575D01*
X38417112Y-145559458D01*
X38420994Y-145555575D01*
X38417112Y-145551693D01*
X38413229Y-145555575D01*
X38401007Y-145555575D01*
X38400545Y-145554481D01*
X38402323Y-145550493D01*
X38403234Y-145545163D01*
X38399116Y-145546934D01*
X38389191Y-145548661D01*
X38373451Y-145544487D01*
X38351087Y-145533888D01*
X38321292Y-145516343D01*
X38283255Y-145491327D01*
X38236171Y-145458318D01*
X38179229Y-145416792D01*
X38111623Y-145366228D01*
X38063822Y-145329976D01*
X38022363Y-145296064D01*
X37974662Y-145253222D01*
X37924060Y-145204748D01*
X37873896Y-145153934D01*
X37827509Y-145104077D01*
X37788240Y-145058470D01*
X37786629Y-145056490D01*
X37759468Y-145023402D01*
X37732204Y-144990837D01*
X37708273Y-144962866D01*
X37693082Y-144945702D01*
X37676673Y-144926438D01*
X37666371Y-144911809D01*
X37665620Y-144909406D01*
X37669021Y-144909406D01*
X37670910Y-144913746D01*
X37678729Y-144922082D01*
X37683224Y-144920372D01*
X37683299Y-144919286D01*
X37677784Y-144912718D01*
X37674334Y-144910321D01*
X37669021Y-144909406D01*
X37665620Y-144909406D01*
X37664368Y-144905404D01*
X37662151Y-144897589D01*
X37652846Y-144879790D01*
X37638056Y-144854896D01*
X37624625Y-144833761D01*
X37603962Y-144799061D01*
X37579365Y-144752886D01*
X37552297Y-144698321D01*
X37524224Y-144638454D01*
X37496608Y-144576371D01*
X37470916Y-144515159D01*
X37457768Y-144482035D01*
X37447498Y-144457555D01*
X37438681Y-144440113D01*
X37433249Y-144433503D01*
X37430717Y-144427656D01*
X37432493Y-144420581D01*
X37433709Y-144411851D01*
X37427735Y-144413664D01*
X37420479Y-144414070D01*
X37420138Y-144405232D01*
X37419553Y-144386832D01*
X37414382Y-144368751D01*
X37406764Y-144357232D01*
X37403228Y-144355850D01*
X37397830Y-144349188D01*
X37395986Y-144335979D01*
X37393726Y-144322820D01*
X37388945Y-144320459D01*
X37384982Y-144317969D01*
X37385979Y-144309229D01*
X37385953Y-144291991D01*
X37382384Y-144283981D01*
X37377603Y-144271603D01*
X37372738Y-144248910D01*
X37369224Y-144223919D01*
X37366476Y-144204429D01*
X37372691Y-144204429D01*
X37376573Y-144208311D01*
X37380456Y-144204429D01*
X37376573Y-144200546D01*
X37372691Y-144204429D01*
X37366476Y-144204429D01*
X37365377Y-144196632D01*
X37360771Y-144175264D01*
X37356812Y-144165183D01*
X37353395Y-144153756D01*
X37349959Y-144129173D01*
X37346619Y-144093810D01*
X37343492Y-144050040D01*
X37340695Y-144000239D01*
X37338343Y-143946780D01*
X37336554Y-143892039D01*
X37335445Y-143838389D01*
X37335130Y-143788205D01*
X37335728Y-143743862D01*
X37335883Y-143738516D01*
X37338115Y-143684525D01*
X37341550Y-143638000D01*
X37346852Y-143593553D01*
X37354685Y-143545794D01*
X37365714Y-143489336D01*
X37367976Y-143478382D01*
X37380598Y-143418289D01*
X37391302Y-143369897D01*
X37401172Y-143329671D01*
X37411292Y-143294073D01*
X37422746Y-143259568D01*
X37436617Y-143222618D01*
X37453989Y-143179689D01*
X37474586Y-143130465D01*
X37533466Y-142999239D01*
X37594462Y-142881101D01*
X37659277Y-142773614D01*
X37729617Y-142674340D01*
X37807187Y-142580843D01*
X37893691Y-142490685D01*
X37974495Y-142415761D01*
X38048041Y-142356859D01*
X38133767Y-142298729D01*
X38228358Y-142243172D01*
X38328498Y-142191988D01*
X38430870Y-142146979D01*
X38532160Y-142109947D01*
X38545237Y-142105761D01*
X38683858Y-142067076D01*
X38835696Y-142033923D01*
X38999363Y-142006557D01*
X39173470Y-141985236D01*
X39228576Y-141979962D01*
X39270470Y-141976145D01*
X39321836Y-141971372D01*
X39376690Y-141966205D01*
X39429049Y-141961203D01*
X39438237Y-141960316D01*
X39492963Y-141955308D01*
X39555851Y-141950003D01*
X39619559Y-141944997D01*
X39676744Y-141940885D01*
X39682841Y-141940478D01*
X39771672Y-141932914D01*
X39847494Y-141922347D01*
X39912679Y-141907938D01*
X39969598Y-141888847D01*
X40020620Y-141864234D01*
X40068117Y-141833261D01*
X40114459Y-141795087D01*
X40127539Y-141783004D01*
X40152974Y-141756943D01*
X40177377Y-141728348D01*
X40198782Y-141699995D01*
X40214848Y-141675241D01*
X40907411Y-141675241D01*
X40909744Y-141676615D01*
X40922505Y-141672749D01*
X40929157Y-141669088D01*
X40935372Y-141662935D01*
X40933039Y-141661561D01*
X40920278Y-141665427D01*
X40913626Y-141669088D01*
X40907411Y-141675241D01*
X40214848Y-141675241D01*
X40215225Y-141674660D01*
X40224242Y-141656146D01*
X40947276Y-141656146D01*
X40948342Y-141660762D01*
X40952452Y-141661323D01*
X40958844Y-141658482D01*
X40957629Y-141656146D01*
X40948414Y-141655217D01*
X40947276Y-141656146D01*
X40224242Y-141656146D01*
X40224742Y-141655120D01*
X40225583Y-141644462D01*
X40224772Y-141639170D01*
X40227809Y-141640377D01*
X40235529Y-141637132D01*
X40245699Y-141623313D01*
X40249371Y-141616340D01*
X40279505Y-141537517D01*
X40295394Y-141455013D01*
X40297186Y-141367625D01*
X40288514Y-141293085D01*
X40282128Y-141259474D01*
X40274621Y-141225495D01*
X40266723Y-141193761D01*
X40259166Y-141166882D01*
X40252683Y-141147470D01*
X40248005Y-141138137D01*
X40245896Y-141141054D01*
X40242391Y-141138156D01*
X40233163Y-141123190D01*
X40219262Y-141098064D01*
X40205388Y-141071635D01*
X40223757Y-141071635D01*
X40223947Y-141075399D01*
X40225819Y-141081508D01*
X40229978Y-141098278D01*
X40230901Y-141104804D01*
X40232779Y-141109339D01*
X40235333Y-141104462D01*
X40234658Y-141090833D01*
X40230251Y-141081166D01*
X40223757Y-141071635D01*
X40205388Y-141071635D01*
X40201739Y-141064684D01*
X40191272Y-141043989D01*
X40206992Y-141043989D01*
X40210875Y-141047871D01*
X40214758Y-141043989D01*
X40210875Y-141040106D01*
X40206992Y-141043989D01*
X40191272Y-141043989D01*
X40181647Y-141024957D01*
X40179616Y-141020868D01*
X40157666Y-140975535D01*
X40146374Y-140950806D01*
X40160401Y-140950806D01*
X40164284Y-140954689D01*
X40168166Y-140950806D01*
X40164284Y-140946923D01*
X40160401Y-140950806D01*
X40146374Y-140950806D01*
X40140165Y-140937210D01*
X40127854Y-140907649D01*
X40124179Y-140896685D01*
X40131349Y-140896685D01*
X40132904Y-140899816D01*
X40140308Y-140907844D01*
X40141670Y-140902182D01*
X40139785Y-140896115D01*
X40134068Y-140887658D01*
X40131486Y-140887833D01*
X40131349Y-140896685D01*
X40124179Y-140896685D01*
X40121473Y-140888612D01*
X40121182Y-140882089D01*
X40125199Y-140871397D01*
X40121865Y-140861070D01*
X40113926Y-140857905D01*
X40111796Y-140858868D01*
X40107381Y-140858980D01*
X40109344Y-140854685D01*
X40107419Y-140845891D01*
X40099600Y-140825644D01*
X40087027Y-140796336D01*
X40070842Y-140760361D01*
X40052187Y-140720111D01*
X40032203Y-140677977D01*
X40012032Y-140636353D01*
X39992816Y-140597630D01*
X39975695Y-140564201D01*
X39961812Y-140538459D01*
X39952307Y-140522796D01*
X39949321Y-140519317D01*
X39944041Y-140510339D01*
X39935722Y-140490302D01*
X39925893Y-140462992D01*
X39922672Y-140453313D01*
X39912865Y-140424574D01*
X39904348Y-140401965D01*
X39898559Y-140389223D01*
X39897501Y-140387828D01*
X39893003Y-140380042D01*
X39886057Y-140361216D01*
X39876368Y-140330397D01*
X39863638Y-140286631D01*
X39847572Y-140228964D01*
X39843231Y-140213111D01*
X39830268Y-140165516D01*
X39820165Y-140127842D01*
X39811948Y-140096074D01*
X39804642Y-140066194D01*
X39797273Y-140034186D01*
X39788867Y-139996033D01*
X39778448Y-139947719D01*
X39775389Y-139933461D01*
X39765435Y-139885941D01*
X39758006Y-139846660D01*
X39752651Y-139811540D01*
X39748921Y-139776502D01*
X39746364Y-139737466D01*
X39744531Y-139690354D01*
X39743240Y-139642368D01*
X39742307Y-139556244D01*
X39744329Y-139480944D01*
X39749774Y-139411961D01*
X39759108Y-139344791D01*
X39772798Y-139274927D01*
X39787869Y-139211399D01*
X39826962Y-139075433D01*
X39873569Y-138950153D01*
X39929303Y-138831881D01*
X39995777Y-138716936D01*
X40022689Y-138675600D01*
X40061073Y-138619026D01*
X40094049Y-138572390D01*
X40124257Y-138532346D01*
X40154333Y-138495548D01*
X40186917Y-138458650D01*
X40224646Y-138418304D01*
X40229870Y-138412837D01*
X40337418Y-138307506D01*
X40446510Y-138215311D01*
X40560368Y-138133947D01*
X40682217Y-138061111D01*
X40814928Y-137994659D01*
X40882772Y-137963843D01*
X40942015Y-137938076D01*
X40995554Y-137916468D01*
X41046283Y-137898126D01*
X41097099Y-137882161D01*
X41150897Y-137867680D01*
X41210573Y-137853794D01*
X41279023Y-137839610D01*
X41359142Y-137824237D01*
X41383422Y-137819717D01*
X41520067Y-137801914D01*
X41661757Y-137797972D01*
X41806540Y-137807884D01*
G37*
G36*
X34657183Y-133701832D02*
G01*
X34744501Y-133707709D01*
X34822851Y-133718123D01*
X34895326Y-133733648D01*
X34965020Y-133754858D01*
X35035028Y-133782326D01*
X35058658Y-133792831D01*
X35091661Y-133807229D01*
X35127601Y-133821951D01*
X35144076Y-133828320D01*
X35181305Y-133844069D01*
X35231479Y-133868260D01*
X35294530Y-133900858D01*
X35369267Y-133941213D01*
X35451077Y-133991484D01*
X35537483Y-134054687D01*
X35626982Y-134129471D01*
X35718069Y-134214486D01*
X35809241Y-134308382D01*
X35898992Y-134409808D01*
X35922158Y-134437547D01*
X35951995Y-134474384D01*
X35985960Y-134517430D01*
X36022149Y-134564162D01*
X36058660Y-134612059D01*
X36093589Y-134658600D01*
X36125032Y-134701264D01*
X36151087Y-134737530D01*
X36169850Y-134764875D01*
X36173419Y-134770401D01*
X36209761Y-134827379D01*
X36245517Y-134882539D01*
X36279683Y-134934413D01*
X36311260Y-134981532D01*
X36339246Y-135022429D01*
X36362639Y-135055633D01*
X36380437Y-135079678D01*
X36391641Y-135093095D01*
X36395026Y-135095374D01*
X36398885Y-135097045D01*
X36397752Y-135101860D01*
X36401041Y-135112352D01*
X36413900Y-135130761D01*
X36434154Y-135154842D01*
X36459631Y-135182348D01*
X36488157Y-135211033D01*
X36517558Y-135238650D01*
X36545661Y-135262954D01*
X36570292Y-135281698D01*
X36574482Y-135284499D01*
X36654564Y-135328411D01*
X36738700Y-135358358D01*
X36828478Y-135374751D01*
X36925486Y-135378004D01*
X36933486Y-135377713D01*
X36973363Y-135375373D01*
X37004664Y-135371205D01*
X37033976Y-135363777D01*
X37067886Y-135351659D01*
X37085378Y-135344707D01*
X37165888Y-135304632D01*
X37241876Y-135251087D01*
X37313919Y-135183560D01*
X37382593Y-135101535D01*
X37424851Y-135041482D01*
X37452786Y-134999185D01*
X37485505Y-134949590D01*
X37519263Y-134898376D01*
X37550313Y-134851223D01*
X37555415Y-134843469D01*
X37583235Y-134801719D01*
X37612401Y-134758864D01*
X37639996Y-134719132D01*
X37663102Y-134686752D01*
X37669545Y-134677998D01*
X37688322Y-134651288D01*
X37702138Y-134628704D01*
X37709207Y-134613342D01*
X37709452Y-134608853D01*
X37708996Y-134603918D01*
X37712021Y-134605184D01*
X37720500Y-134602189D01*
X37733856Y-134589300D01*
X37743560Y-134576999D01*
X37807306Y-134493338D01*
X37880734Y-134405688D01*
X37960697Y-134317359D01*
X38044050Y-134231657D01*
X38127648Y-134151892D01*
X38208346Y-134081371D01*
X38236519Y-134058538D01*
X38261463Y-134037649D01*
X38280286Y-134019670D01*
X38290598Y-134007014D01*
X38291617Y-134002801D01*
X38291608Y-133998333D01*
X38294909Y-133999805D01*
X38304975Y-133998302D01*
X38323828Y-133989575D01*
X38347625Y-133975440D01*
X38350784Y-133973364D01*
X38375127Y-133958601D01*
X38411020Y-133938701D01*
X38455879Y-133914961D01*
X38507121Y-133888682D01*
X38562163Y-133861162D01*
X38618421Y-133833702D01*
X38673311Y-133807599D01*
X38724251Y-133784154D01*
X38748370Y-133773423D01*
X38787708Y-133756541D01*
X38822446Y-133742845D01*
X38854908Y-133731965D01*
X38887420Y-133723530D01*
X38922306Y-133717171D01*
X38961890Y-133712518D01*
X39008499Y-133709200D01*
X39064456Y-133706849D01*
X39132086Y-133705093D01*
X39184161Y-133704083D01*
X39279861Y-133702894D01*
X39361690Y-133703111D01*
X39431255Y-133704839D01*
X39490162Y-133708180D01*
X39540015Y-133713238D01*
X39582421Y-133720117D01*
X39618985Y-133728921D01*
X39632367Y-133733015D01*
X39665584Y-133742904D01*
X39701103Y-133752110D01*
X39715952Y-133755458D01*
X39746125Y-133763011D01*
X39775348Y-133772290D01*
X39785839Y-133776359D01*
X39806714Y-133784729D01*
X39836760Y-133796128D01*
X39870481Y-133808483D01*
X39880854Y-133812194D01*
X39915584Y-133824959D01*
X39949363Y-133838401D01*
X39985007Y-133853789D01*
X40025335Y-133872391D01*
X40073162Y-133895477D01*
X40131307Y-133924316D01*
X40144871Y-133931110D01*
X40185601Y-133951475D01*
X40217935Y-133967730D01*
X40244153Y-133981367D01*
X40266532Y-133993881D01*
X40287352Y-134006765D01*
X40308891Y-134021510D01*
X40333429Y-134039611D01*
X40363244Y-134062561D01*
X40400615Y-134091852D01*
X40447822Y-134128977D01*
X40452569Y-134132705D01*
X40503202Y-134175085D01*
X40559192Y-134226387D01*
X40616843Y-134282916D01*
X40672460Y-134340975D01*
X40722347Y-134396866D01*
X40749640Y-134429891D01*
X40772490Y-134457438D01*
X40792404Y-134479214D01*
X40807225Y-134493008D01*
X40814751Y-134496637D01*
X40819185Y-134496676D01*
X40817774Y-134499838D01*
X40818972Y-134510243D01*
X40827243Y-134528885D01*
X40837928Y-134547129D01*
X40853400Y-134571078D01*
X40873978Y-134602895D01*
X40896321Y-134637415D01*
X40907644Y-134654900D01*
X40942756Y-134715105D01*
X40978629Y-134787525D01*
X41014127Y-134868959D01*
X41048116Y-134956207D01*
X41079460Y-135046071D01*
X41107023Y-135135349D01*
X41129670Y-135220842D01*
X41146266Y-135299351D01*
X41153647Y-135348208D01*
X41159067Y-135405448D01*
X41163250Y-135473864D01*
X41166115Y-135549143D01*
X41167582Y-135626972D01*
X41167569Y-135703039D01*
X41165997Y-135773032D01*
X41162785Y-135832639D01*
X41162716Y-135833533D01*
X41147934Y-135951808D01*
X41121410Y-136074022D01*
X41082662Y-136202265D01*
X41068953Y-136241207D01*
X41052709Y-136286160D01*
X41041097Y-136318793D01*
X41033364Y-136341352D01*
X41028755Y-136356083D01*
X41026517Y-136365234D01*
X41025971Y-136369333D01*
X41022487Y-136384580D01*
X41014820Y-136407965D01*
X41005136Y-136433451D01*
X40995601Y-136455002D01*
X40994359Y-136457442D01*
X40986567Y-136474950D01*
X40983561Y-136486406D01*
X40979397Y-136500010D01*
X40968081Y-136523639D01*
X40951242Y-136554511D01*
X40930513Y-136589843D01*
X40907523Y-136626852D01*
X40883905Y-136662755D01*
X40862008Y-136693797D01*
X40807940Y-136766059D01*
X40760156Y-136827513D01*
X40716699Y-136880512D01*
X40675610Y-136927411D01*
X40634929Y-136970563D01*
X40615060Y-136990549D01*
X40559348Y-137044006D01*
X40505698Y-137091562D01*
X40450289Y-137136274D01*
X40389299Y-137181198D01*
X40318908Y-137229389D01*
X40304695Y-137238811D01*
X40238280Y-137281541D01*
X40180614Y-137316000D01*
X40128534Y-137343879D01*
X40078876Y-137366871D01*
X40028475Y-137386667D01*
X40027415Y-137387050D01*
X39938279Y-137418974D01*
X39861713Y-137445774D01*
X39795817Y-137467972D01*
X39738695Y-137486091D01*
X39688447Y-137500656D01*
X39643176Y-137512189D01*
X39600984Y-137521213D01*
X39559972Y-137528253D01*
X39518244Y-137533831D01*
X39480534Y-137537839D01*
X39424924Y-137542209D01*
X39360424Y-137545634D01*
X39290789Y-137548059D01*
X39219774Y-137549423D01*
X39151134Y-137549669D01*
X39088625Y-137548738D01*
X39036001Y-137546574D01*
X39015033Y-137545051D01*
X38973826Y-137541210D01*
X38942326Y-137537269D01*
X38915556Y-137532076D01*
X38888537Y-137524479D01*
X38856293Y-137513326D01*
X38820902Y-137500130D01*
X38785843Y-137486927D01*
X38743003Y-137470836D01*
X38699155Y-137454400D01*
X38677246Y-137446203D01*
X38561315Y-137398461D01*
X38452981Y-137344286D01*
X38349821Y-137282061D01*
X38249410Y-137210169D01*
X38149325Y-137126994D01*
X38047140Y-137030919D01*
X38032235Y-137016052D01*
X37999466Y-136983585D01*
X37970094Y-136955310D01*
X37945978Y-136932954D01*
X37928982Y-136918242D01*
X37920965Y-136912898D01*
X37920943Y-136912897D01*
X37912822Y-136906876D01*
X37912544Y-136905132D01*
X37916256Y-136905132D01*
X37920138Y-136909015D01*
X37924021Y-136905132D01*
X37920138Y-136901249D01*
X37916256Y-136905132D01*
X37912544Y-136905132D01*
X37912373Y-136904059D01*
X37907862Y-136895436D01*
X37895825Y-136877709D01*
X37878509Y-136853845D01*
X37858159Y-136826812D01*
X37837022Y-136799576D01*
X37817344Y-136775106D01*
X37801370Y-136756367D01*
X37797007Y-136751647D01*
X37787433Y-136740185D01*
X37772774Y-136721115D01*
X37762438Y-136707119D01*
X37747407Y-136687909D01*
X37735417Y-136675217D01*
X37730571Y-136672176D01*
X37721551Y-136666229D01*
X37706847Y-136650489D01*
X37688728Y-136628103D01*
X37669461Y-136602220D01*
X37651316Y-136575987D01*
X37636561Y-136552553D01*
X37627465Y-136535066D01*
X37625981Y-136527030D01*
X37624077Y-136522272D01*
X37619813Y-136522503D01*
X37610880Y-136518346D01*
X37609653Y-136512989D01*
X37605626Y-136501514D01*
X37594785Y-136481021D01*
X37579171Y-136455252D01*
X37572768Y-136445394D01*
X37556055Y-136419560D01*
X37543269Y-136398715D01*
X37536403Y-136386156D01*
X37535760Y-136384214D01*
X37531170Y-136373635D01*
X37518811Y-136353895D01*
X37500802Y-136327810D01*
X37479263Y-136298195D01*
X37456311Y-136267865D01*
X37434067Y-136239635D01*
X37414648Y-136216323D01*
X37400174Y-136200742D01*
X37394045Y-136195910D01*
X37388372Y-136186991D01*
X37388221Y-136185061D01*
X37383622Y-136174905D01*
X37371770Y-136157442D01*
X37360523Y-136143000D01*
X37346443Y-136124800D01*
X37338546Y-136112529D01*
X37338088Y-136109198D01*
X37336739Y-136104862D01*
X37326395Y-136094300D01*
X37325019Y-136093076D01*
X37315817Y-136083657D01*
X37316997Y-136081433D01*
X37318334Y-136081938D01*
X37317910Y-136079071D01*
X37307903Y-136067504D01*
X37290078Y-136049144D01*
X37269320Y-136028882D01*
X37204869Y-135974654D01*
X37137746Y-135933630D01*
X37065633Y-135904920D01*
X36986214Y-135887634D01*
X36897172Y-135880881D01*
X36883483Y-135880725D01*
X36818510Y-135882586D01*
X36763562Y-135889672D01*
X36713626Y-135903323D01*
X36663689Y-135924881D01*
X36613050Y-135953082D01*
X36545560Y-136000527D01*
X36480819Y-136058926D01*
X36423221Y-136123903D01*
X36381590Y-136183615D01*
X36370725Y-136199984D01*
X36353173Y-136224726D01*
X36331744Y-136253929D01*
X36317471Y-136272915D01*
X36295338Y-136303194D01*
X36275824Y-136331934D01*
X36261602Y-136355096D01*
X36256557Y-136365015D01*
X36246167Y-136385601D01*
X36230376Y-136412516D01*
X36214941Y-136436417D01*
X36199838Y-136459288D01*
X36188975Y-136476941D01*
X36184621Y-136485683D01*
X36184614Y-136485792D01*
X36180031Y-136496537D01*
X36167383Y-136517117D01*
X36148316Y-136545250D01*
X36124479Y-136578654D01*
X36097520Y-136615046D01*
X36069088Y-136652144D01*
X36040830Y-136687666D01*
X36024774Y-136707119D01*
X35996528Y-136741267D01*
X35970301Y-136773861D01*
X35948510Y-136801839D01*
X35933566Y-136822138D01*
X35930430Y-136826814D01*
X35916629Y-136845007D01*
X35893458Y-136871749D01*
X35862916Y-136905007D01*
X35826997Y-136942744D01*
X35787698Y-136982928D01*
X35747016Y-137023521D01*
X35706945Y-137062491D01*
X35669484Y-137097802D01*
X35636627Y-137127419D01*
X35629401Y-137133665D01*
X35591068Y-137165154D01*
X35547940Y-137198408D01*
X35502056Y-137232070D01*
X35455453Y-137264782D01*
X35410172Y-137295187D01*
X35368249Y-137321926D01*
X35331725Y-137343644D01*
X35302637Y-137358981D01*
X35283024Y-137366581D01*
X35278763Y-137367162D01*
X35271552Y-137371470D01*
X35272943Y-137376127D01*
X35273854Y-137381462D01*
X35269810Y-137379731D01*
X35258499Y-137379943D01*
X35238812Y-137386260D01*
X35223960Y-137392940D01*
X35194373Y-137406380D01*
X35154119Y-137422797D01*
X35106618Y-137440980D01*
X35055289Y-137459716D01*
X35003551Y-137477792D01*
X34954823Y-137493997D01*
X34912524Y-137507116D01*
X34880073Y-137515938D01*
X34872293Y-137517662D01*
X34840711Y-137523075D01*
X34799305Y-137528812D01*
X34753747Y-137534144D01*
X34714812Y-137537914D01*
X34668777Y-137540953D01*
X34613651Y-137543151D01*
X34552251Y-137544530D01*
X34487395Y-137545110D01*
X34421898Y-137544912D01*
X34358579Y-137543957D01*
X34300254Y-137542265D01*
X34249741Y-137539857D01*
X34209856Y-137536754D01*
X34188955Y-137534042D01*
X34161171Y-137527747D01*
X34121665Y-137516664D01*
X34073156Y-137501711D01*
X34018366Y-137483805D01*
X33960016Y-137463865D01*
X33900829Y-137442807D01*
X33843524Y-137421549D01*
X33790823Y-137401009D01*
X33773516Y-137393973D01*
X33741945Y-137381580D01*
X33714652Y-137371980D01*
X33695537Y-137366491D01*
X33689872Y-137365704D01*
X33680251Y-137363278D01*
X33680121Y-137359740D01*
X33677790Y-137352259D01*
X33664428Y-137346300D01*
X33644527Y-137343866D01*
X33644512Y-137343866D01*
X33629853Y-137338608D01*
X33624903Y-137332219D01*
X33629860Y-137332219D01*
X33633743Y-137336101D01*
X33637625Y-137332219D01*
X33633743Y-137328336D01*
X33629860Y-137332219D01*
X33624903Y-137332219D01*
X33614532Y-137323248D01*
X33601393Y-137320571D01*
X33588586Y-137318355D01*
X33586450Y-137313941D01*
X33583286Y-137306474D01*
X33570089Y-137297990D01*
X33550439Y-137287261D01*
X33521264Y-137269072D01*
X33485401Y-137245362D01*
X33445690Y-137218068D01*
X33404968Y-137189132D01*
X33366072Y-137160490D01*
X33342781Y-137142691D01*
X33300363Y-137107867D01*
X33252711Y-137065737D01*
X33202707Y-137019117D01*
X33153232Y-136970821D01*
X33107169Y-136923664D01*
X33067399Y-136880462D01*
X33036803Y-136844030D01*
X33036010Y-136843010D01*
X33010290Y-136808872D01*
X32980653Y-136768045D01*
X32951652Y-136726855D01*
X32937071Y-136705520D01*
X32916859Y-136676550D01*
X32899538Y-136653659D01*
X32886971Y-136639177D01*
X32881059Y-136635396D01*
X32878707Y-136634429D01*
X32880278Y-136629008D01*
X32879280Y-136614537D01*
X32872495Y-136602066D01*
X32864222Y-136592219D01*
X32863960Y-136594741D01*
X32868869Y-136606171D01*
X32874341Y-136619190D01*
X32872487Y-136619065D01*
X32865244Y-136610277D01*
X32857283Y-136594833D01*
X32856961Y-136584637D01*
X32856685Y-136577958D01*
X32853581Y-136578844D01*
X32845548Y-136575875D01*
X32835557Y-136562631D01*
X32834257Y-136560220D01*
X32831355Y-136554041D01*
X32839060Y-136554041D01*
X32840950Y-136558380D01*
X32848768Y-136566717D01*
X32853263Y-136565007D01*
X32853339Y-136563921D01*
X32847824Y-136557353D01*
X32844374Y-136554956D01*
X32839060Y-136554041D01*
X32831355Y-136554041D01*
X32824584Y-136539622D01*
X32823267Y-136530782D01*
X32830145Y-136532470D01*
X32830685Y-136532798D01*
X32833146Y-136530439D01*
X32828697Y-136518072D01*
X32826603Y-136513844D01*
X32816824Y-136497312D01*
X32810348Y-136490123D01*
X32809138Y-136493375D01*
X32814668Y-136507165D01*
X32820090Y-136518999D01*
X32817671Y-136517673D01*
X32811307Y-136509904D01*
X32803539Y-136496494D01*
X32803099Y-136489315D01*
X32801788Y-136479854D01*
X32794822Y-136460858D01*
X32784470Y-136438044D01*
X32772622Y-136411340D01*
X32757479Y-136373518D01*
X32740382Y-136328280D01*
X32722671Y-136279331D01*
X32705686Y-136230374D01*
X32690769Y-136185113D01*
X32679481Y-136148024D01*
X32661865Y-136085052D01*
X32647633Y-136030406D01*
X32636430Y-135981224D01*
X32627897Y-135934641D01*
X32621679Y-135887795D01*
X32617420Y-135837822D01*
X32614762Y-135781858D01*
X32613350Y-135717040D01*
X32612828Y-135640505D01*
X32612790Y-135612225D01*
X32613772Y-135525057D01*
X32617190Y-135447144D01*
X32623617Y-135375076D01*
X32633628Y-135305439D01*
X32647799Y-135234821D01*
X32666704Y-135159811D01*
X32690918Y-135076994D01*
X32716496Y-134996715D01*
X32760896Y-134877245D01*
X32815278Y-134757898D01*
X32877544Y-134642586D01*
X32945599Y-134535221D01*
X33011015Y-134447443D01*
X33119590Y-134322721D01*
X33231805Y-134211462D01*
X33307286Y-134145990D01*
X33340843Y-134117948D01*
X33369288Y-134093101D01*
X33390790Y-134073139D01*
X33403517Y-134059752D01*
X33406089Y-134054828D01*
X33406006Y-134052189D01*
X33409123Y-134053667D01*
X33419397Y-134052014D01*
X33437624Y-134042918D01*
X33455714Y-134031196D01*
X33502378Y-134001065D01*
X33562712Y-133967153D01*
X33635489Y-133930072D01*
X33719481Y-133890432D01*
X33813463Y-133848845D01*
X33870581Y-133824690D01*
X33943835Y-133794767D01*
X34008495Y-133769974D01*
X34067149Y-133749841D01*
X34122385Y-133733899D01*
X34176792Y-133721676D01*
X34232958Y-133712704D01*
X34293471Y-133706513D01*
X34360920Y-133702632D01*
X34437894Y-133700591D01*
X34526980Y-133699920D01*
X34557802Y-133699918D01*
X34657183Y-133701832D01*
G37*
D12*
%TO.C,SW3*%
X31115000Y-76340000D02*
X35215000Y-76340000D01*
X31115000Y-78740000D02*
X31115000Y-76340000D01*
X31115000Y-83540000D02*
X31115000Y-80940000D01*
X31115000Y-88140000D02*
X31115000Y-85740000D01*
X35215000Y-88140000D02*
X31115000Y-88140000D01*
X37215000Y-82740000D02*
X37215000Y-81740000D01*
X37715000Y-82240000D02*
X36715000Y-82240000D01*
X39215000Y-76340000D02*
X43315000Y-76340000D01*
X39215000Y-88140000D02*
X43315000Y-88140000D01*
X43315000Y-88140000D02*
X43315000Y-76340000D01*
X44415000Y-86340000D02*
X44715000Y-86040000D01*
X44715000Y-86040000D02*
X45015000Y-86340000D01*
X45015000Y-86340000D02*
X44415000Y-86340000D01*
X40215000Y-82240000D02*
G75*
G02*
X34215000Y-82240000I-3000000J0D01*
G01*
X34215000Y-82240000D02*
G75*
G02*
X40215000Y-82240000I3000000J0D01*
G01*
%TD*%
M02*
