M48
; DRILL file {KiCad 9.0.6} date 2025-12-28T20:47:31+0100
; FORMAT={-:-/ absolute / metric / decimal}
; #@! TF.CreationDate,2025-12-28T20:47:31+01:00
; #@! TF.GenerationSoftware,Kicad,Pcbnew,9.0.6
; #@! TF.FileFunction,NonPlated,1,2,NPTH
FMAT,2
METRIC
; #@! TA.AperFunction,NonPlated,NPTH,ComponentDrill
T1C1.750
; #@! TA.AperFunction,NonPlated,NPTH,ComponentDrill
T2C4.000
%
G90
G05
T1
X32.067Y-101.29
X32.067Y-120.34
X42.227Y-101.29
X42.227Y-120.34
X51.117Y-82.24
X51.117Y-101.29
X51.117Y-120.34
X51.117Y-139.39
X61.277Y-82.24
X61.277Y-101.29
X61.277Y-120.34
X61.277Y-139.39
X70.167Y-82.24
X70.167Y-101.29
X70.167Y-120.34
X70.167Y-139.39
X80.328Y-82.24
X80.328Y-101.29
X80.328Y-120.34
X80.328Y-139.39
X89.218Y-101.29
X89.218Y-120.34
X99.377Y-101.29
X99.377Y-120.34
T2
X37.148Y-101.29
X37.148Y-120.34
X56.197Y-82.24
X56.197Y-101.29
X56.197Y-120.34
X56.197Y-139.39
X75.248Y-82.24
X75.248Y-101.29
X75.248Y-120.34
X75.248Y-139.39
X94.297Y-101.29
X94.297Y-120.34
M30
