M48
; DRILL file {KiCad 9.0.6} date 2025-12-28T20:47:31+0100
; FORMAT={-:-/ absolute / metric / decimal}
; #@! TF.CreationDate,2025-12-28T20:47:31+01:00
; #@! TF.GenerationSoftware,Kicad,Pcbnew,9.0.6
; #@! TF.FileFunction,Plated,1,2,PTH
FMAT,2
METRIC
; #@! TA.AperFunction,Plated,PTH,ComponentDrill
T1C0.800
; #@! TA.AperFunction,Plated,PTH,ComponentDrill
T2C1.000
; #@! TA.AperFunction,Plated,PTH,ComponentDrill
T3C1.500
%
G90
G05
T1
X36.671Y-72.715
X44.291Y-72.715
X46.672Y-96.527
X46.672Y-104.147
X46.672Y-115.578
X46.672Y-123.197
X65.722Y-77.477
X65.722Y-85.097
X65.722Y-96.527
X65.722Y-104.147
X65.722Y-115.578
X65.722Y-123.197
X66.04Y-134.627
X66.04Y-142.248
X84.209Y-77.477
X84.209Y-85.097
X84.772Y-96.527
X84.772Y-104.147
X84.772Y-134.627
X84.772Y-142.248
X85.09Y-115.578
X85.09Y-123.197
X103.822Y-96.527
X103.822Y-104.147
X104.14Y-115.578
X104.14Y-123.197
T2
X30.215Y-79.74
X30.215Y-84.74
X44.715Y-79.74
X44.715Y-82.24
X44.715Y-84.74
X87.365Y-79.74
X87.365Y-84.74
X88.424Y-132.745
X88.424Y-135.285
X88.424Y-137.825
X88.424Y-140.365
X88.424Y-142.905
X88.424Y-145.445
X88.424Y-147.985
X101.865Y-79.74
X101.865Y-82.24
X101.865Y-84.74
X103.664Y-132.745
X103.664Y-135.285
X103.664Y-137.825
X103.664Y-140.365
X103.664Y-142.905
X103.664Y-145.445
X103.664Y-147.985
T3
X33.337Y-98.75
X33.337Y-117.8
X39.688Y-96.21
X39.688Y-115.26
X52.387Y-79.7
X52.387Y-98.75
X52.387Y-117.8
X52.387Y-136.85
X58.737Y-77.16
X58.737Y-96.21
X58.737Y-115.26
X58.737Y-134.31
X71.438Y-79.7
X71.438Y-98.75
X71.438Y-117.8
X71.438Y-136.85
X77.787Y-77.16
X77.787Y-96.21
X77.787Y-115.26
X77.787Y-134.31
X90.487Y-98.75
X90.487Y-117.8
X96.837Y-96.21
X96.837Y-115.26
T3
G00X37.865Y-76.64
M15
G01X36.565Y-76.64
M16
G05
G00X37.865Y-87.84
M15
G01X36.565Y-87.84
M16
G05
G00X95.015Y-76.64
M15
G01X93.715Y-76.64
M16
G05
G00X95.015Y-87.84
M15
G01X93.715Y-87.84
M16
G05
M30
